# Blender v3.6.1 OBJ File: ''
# www.blender.org
mtllib KevRamp.mtl
o Cube_Cube.002
v -17.448193 -16.448193 17.448193
v -17.448193 18.448193 17.448193
v -17.448193 -16.448193 -17.448193
v 17.448193 -16.448193 17.448193
v 17.448193 18.448193 17.448193
v 17.448193 -16.448193 -17.448193
vt 0.625000 0.750000
vt 0.375000 1.000000
vt 0.375000 0.750000
vt 0.375000 0.500000
vt 0.125000 0.750000
vt 0.125000 0.500000
vt 0.625000 1.000000
vn 0.0000 0.0000 1.0000
vn 0.0000 -1.0000 0.0000
vn 0.0000 0.7071 -0.7071
vn -1.0000 0.0000 0.0000
vn 1.0000 0.0000 0.0000
usemtl None
s off
f 5/1/1 1/2/1 4/3/1
f 6/4/2 1/5/2 3/6/2
f 2/7/3 6/4/3 3/6/3
f 2/7/3 5/1/3 6/4/3
f 6/4/2 4/3/2 1/5/2
f 5/1/1 2/7/1 1/2/1
f 3/6/4 1/2/4 2/7/4
f 4/3/5 6/4/5 5/1/5
