{
	"asset":{
		"generator":"Khronos glTF Blender I/O v3.5.30",
		"version":"2.0"
	},
	"scene":0,
	"scenes":[
		{
			"name":"Scene",
			"nodes":[
				0,
				1,
				2,
				3
			]
		}
	],
	"nodes":[
		{
			"mesh":0,
			"name":"Torus",
			"translation":[
				0,
				0.028102684766054153,
				0
			]
		},
		{
			"mesh":1,
			"name":"Icing",
			"translation":[
				0,
				0.028102684766054153,
				0
			]
		},
		{
			"mesh":2,
			"name":"Plane",
			"scale":[
				0.7357712388038635,
				0.7357712388038635,
				0.7357712388038635
			]
		},
		{
			"mesh":3,
			"name":"Cylinder",
			"translation":[
				-0.04899746924638748,
				0.03493698686361313,
				-0.1603156328201294
			]
		}
	],
	"materials":[
		{
			"doubleSided":true,
			"name":"Material.002",
			"pbrMetallicRoughness":{
				"baseColorTexture":{
					"index":0
				},
				"metallicFactor":0,
				"roughnessFactor":0.5
			}
		},
		{
			"doubleSided":true,
			"name":"Material.001",
			"pbrMetallicRoughness":{
				"baseColorFactor":[
					0.8000000715255737,
					0.6405633687973022,
					0.5959500670433044,
					1
				],
				"metallicFactor":0,
				"roughnessFactor":0.4701492488384247
			}
		},
		{
			"doubleSided":true,
			"name":"Material.003",
			"pbrMetallicRoughness":{
				"metallicFactor":0,
				"roughnessFactor":0.8756219148635864
			}
		}
	],
	"meshes":[
		{
			"name":"Torus",
			"primitives":[
				{
					"attributes":{
						"POSITION":0,
						"TEXCOORD_0":1,
						"NORMAL":2
					},
					"indices":3,
					"material":0
				}
			]
		},
		{
			"name":"Torus.001",
			"primitives":[
				{
					"attributes":{
						"POSITION":4,
						"TEXCOORD_0":5,
						"NORMAL":6
					},
					"indices":7,
					"material":1
				}
			]
		},
		{
			"name":"Plane",
			"primitives":[
				{
					"attributes":{
						"POSITION":8,
						"TEXCOORD_0":9,
						"NORMAL":10
					},
					"indices":11,
					"material":2
				}
			]
		},
		{
			"name":"Cylinder.001",
			"primitives":[
				{
					"attributes":{
						"POSITION":12,
						"TEXCOORD_0":13,
						"NORMAL":14
					},
					"indices":15
				}
			]
		}
	],
	"textures":[
		{
			"sampler":0,
			"source":0
		}
	],
	"images":[
		{
			"bufferView":4,
			"mimeType":"image/png",
			"name":"Donut Base"
		}
	],
	"accessors":[
		{
			"bufferView":0,
			"componentType":5126,
			"count":2663,
			"max":[
				0.06290574371814728,
				0.02743123658001423,
				0.06320615857839584
			],
			"min":[
				-0.06283298879861832,
				-0.026077596470713615,
				-0.06264282763004303
			],
			"type":"VEC3"
		},
		{
			"bufferView":1,
			"componentType":5126,
			"count":2663,
			"type":"VEC2"
		},
		{
			"bufferView":2,
			"componentType":5126,
			"count":2663,
			"type":"VEC3"
		},
		{
			"bufferView":3,
			"componentType":5123,
			"count":14592,
			"type":"SCALAR"
		},
		{
			"bufferView":5,
			"componentType":5126,
			"count":10692,
			"max":[
				0.06387871503829956,
				0.030023077502846718,
				0.06417246162891388
			],
			"min":[
				-0.0673067718744278,
				-0.01219931710511446,
				-0.06409008055925369
			],
			"type":"VEC3"
		},
		{
			"bufferView":6,
			"componentType":5126,
			"count":10692,
			"type":"VEC2"
		},
		{
			"bufferView":7,
			"componentType":5126,
			"count":10692,
			"type":"VEC3"
		},
		{
			"bufferView":8,
			"componentType":5123,
			"count":62286,
			"type":"SCALAR"
		},
		{
			"bufferView":9,
			"componentType":5126,
			"count":4,
			"max":[
				1,
				0,
				1
			],
			"min":[
				-1,
				0,
				-1
			],
			"type":"VEC3"
		},
		{
			"bufferView":10,
			"componentType":5126,
			"count":4,
			"type":"VEC2"
		},
		{
			"bufferView":11,
			"componentType":5126,
			"count":4,
			"type":"VEC3"
		},
		{
			"bufferView":12,
			"componentType":5123,
			"count":6,
			"type":"SCALAR"
		},
		{
			"bufferView":13,
			"componentType":5126,
			"count":48,
			"max":[
				0.0010000000474974513,
				0.001000000280328095,
				0.0056570107117295265
			],
			"min":[
				-0.0010000000474974513,
				-0.001000000280328095,
				-0.0056570107117295265
			],
			"type":"VEC3"
		},
		{
			"bufferView":14,
			"componentType":5126,
			"count":48,
			"type":"VEC2"
		},
		{
			"bufferView":15,
			"componentType":5126,
			"count":48,
			"type":"VEC3"
		},
		{
			"bufferView":16,
			"componentType":5123,
			"count":84,
			"type":"SCALAR"
		}
	],
	"bufferViews":[
		{
			"buffer":0,
			"byteLength":31956,
			"byteOffset":0,
			"target":34962
		},
		{
			"buffer":0,
			"byteLength":21304,
			"byteOffset":31956,
			"target":34962
		},
		{
			"buffer":0,
			"byteLength":31956,
			"byteOffset":53260,
			"target":34962
		},
		{
			"buffer":0,
			"byteLength":29184,
			"byteOffset":85216,
			"target":34963
		},
		{
			"buffer":0,
			"byteLength":44133,
			"byteOffset":114400
		},
		{
			"buffer":0,
			"byteLength":128304,
			"byteOffset":158536,
			"target":34962
		},
		{
			"buffer":0,
			"byteLength":85536,
			"byteOffset":286840,
			"target":34962
		},
		{
			"buffer":0,
			"byteLength":128304,
			"byteOffset":372376,
			"target":34962
		},
		{
			"buffer":0,
			"byteLength":124572,
			"byteOffset":500680,
			"target":34963
		},
		{
			"buffer":0,
			"byteLength":48,
			"byteOffset":625252,
			"target":34962
		},
		{
			"buffer":0,
			"byteLength":32,
			"byteOffset":625300,
			"target":34962
		},
		{
			"buffer":0,
			"byteLength":48,
			"byteOffset":625332,
			"target":34962
		},
		{
			"buffer":0,
			"byteLength":12,
			"byteOffset":625380,
			"target":34963
		},
		{
			"buffer":0,
			"byteLength":576,
			"byteOffset":625392,
			"target":34962
		},
		{
			"buffer":0,
			"byteLength":384,
			"byteOffset":625968,
			"target":34962
		},
		{
			"buffer":0,
			"byteLength":576,
			"byteOffset":626352,
			"target":34962
		},
		{
			"buffer":0,
			"byteLength":168,
			"byteOffset":626928,
			"target":34963
		}
	],
	"samplers":[
		{
			"magFilter":9729,
			"minFilter":9987
		}
	],
	"buffers":[
		{
			"byteLength":627096,
			"uri":"data:application/octet-stream;base64,"
		}
	]
}
