{
	"asset":{
		"generator":"Khronos glTF Blender I/O v3.5.30",
		"version":"2.0"
	},
	"scene":0,
	"scenes":[
		{
			"name":"Scene",
			"nodes":[
				0,
				1,
				2,
				3,
				4,
				5
			]
		}
	],
	"nodes":[
		{
			"mesh":0,
			"name":"Sphere",
			"scale":[
				-3.992269515991211,
				-3.992269515991211,
				-3.992269515991211
			],
			"translation":[
				0,
				3.9946272373199463,
				0
			]
		},
		{
			"mesh":1,
			"name":"Sphere.001"
		},
		{
			"mesh":2,
			"name":"Sphere.002",
			"translation":[
				4.645101547241211,
				0.9140895009040833,
				-5.099478721618652
			]
		},
		{
			"mesh":3,
			"name":"Plane",
			"scale":[
				1.8450782299041748,
				1.8450782299041748,
				1.8450782299041748
			],
			"translation":[
				0,
				0,
				7.081954002380371
			]
		},
		{
			"mesh":4,
			"name":"Plane.001",
			"scale":[
				1.8450782299041748,
				1.8450782299041748,
				1.8450782299041748
			],
			"translation":[
				-5.386170864105225,
				0,
				7.081954002380371
			]
		},
		{
			"mesh":5,
			"name":"Plane.002",
			"scale":[
				1.8450782299041748,
				1.8450782299041748,
				1.8450782299041748
			],
			"translation":[
				4.740897178649902,
				0,
				7.081954002380371
			]
		}
	],
	"materials":[
		{
			"doubleSided":true,
			"name":"Material.001",
			"pbrMetallicRoughness":{
				"baseColorTexture":{
					"index":0
				},
				"metallicFactor":0,
				"roughnessFactor":0.5
			}
		},
		{
			"doubleSided":true,
			"name":"Material.002",
			"pbrMetallicRoughness":{
				"baseColorTexture":{
					"index":1
				},
				"metallicFactor":0,
				"roughnessFactor":0.5
			}
		},
		{
			"doubleSided":true,
			"name":"Material",
			"pbrMetallicRoughness":{
				"baseColorTexture":{
					"index":2
				},
				"metallicFactor":0,
				"roughnessFactor":0.5
			}
		}
	],
	"meshes":[
		{
			"name":"Sphere",
			"primitives":[
				{
					"attributes":{
						"POSITION":0,
						"TEXCOORD_0":1,
						"NORMAL":2,
						"TANGENT":3
					},
					"indices":4
				}
			]
		},
		{
			"name":"Sphere.001",
			"primitives":[
				{
					"attributes":{
						"POSITION":5,
						"TEXCOORD_0":6,
						"NORMAL":7,
						"TANGENT":8
					},
					"indices":9
				}
			]
		},
		{
			"name":"Sphere.003",
			"primitives":[
				{
					"attributes":{
						"POSITION":10,
						"TEXCOORD_0":11,
						"NORMAL":12,
						"TANGENT":13
					},
					"indices":14
				}
			]
		},
		{
			"name":"Plane",
			"primitives":[
				{
					"attributes":{
						"POSITION":15,
						"TEXCOORD_0":16,
						"NORMAL":17,
						"TANGENT":18
					},
					"indices":19,
					"material":0
				}
			]
		},
		{
			"name":"Plane.001",
			"primitives":[
				{
					"attributes":{
						"POSITION":20,
						"TEXCOORD_0":21,
						"NORMAL":22,
						"TANGENT":23
					},
					"indices":24,
					"material":1
				}
			]
		},
		{
			"name":"Plane.002",
			"primitives":[
				{
					"attributes":{
						"POSITION":25,
						"TEXCOORD_0":26,
						"NORMAL":27,
						"TANGENT":28
					},
					"indices":29,
					"material":2
				}
			]
		}
	],
	"textures":[
		{
			"sampler":0,
			"source":0
		},
		{
			"sampler":0,
			"source":1
		},
		{
			"sampler":0,
			"source":2
		}
	],
	"images":[
		{
			"bufferView":20,
			"mimeType":"image/jpeg",
			"name":"192383113-luxury-marble-texture-background-white-blue-and-gold-natural-stone-color-material-pattern-creative"
		},
		{
			"bufferView":26,
			"mimeType":"image/png",
			"name":"pinky (1)"
		},
		{
			"bufferView":32,
			"mimeType":"image/png",
			"name":"moss"
		}
	],
	"accessors":[
		{
			"bufferView":0,
			"componentType":5126,
			"count":824,
			"max":[
				0.9208283424377441,
				1.2029390335083008,
				0.9149860739707947
			],
			"min":[
				-1.0726025104522705,
				-0.19581055641174316,
				-0.9163647890090942
			],
			"type":"VEC3"
		},
		{
			"bufferView":1,
			"componentType":5126,
			"count":824,
			"type":"VEC2"
		},
		{
			"bufferView":2,
			"componentType":5126,
			"count":824,
			"type":"VEC3"
		},
		{
			"bufferView":3,
			"componentType":5126,
			"count":824,
			"type":"VEC4"
		},
		{
			"bufferView":4,
			"componentType":5123,
			"count":2880,
			"type":"SCALAR"
		},
		{
			"bufferView":5,
			"componentType":5126,
			"count":268,
			"max":[
				1.6637831926345825,
				0.5610868334770203,
				2.283663272857666
			],
			"min":[
				-1.6717158555984497,
				-1.7352186441421509,
				-1.832070231437683
			],
			"type":"VEC3"
		},
		{
			"bufferView":6,
			"componentType":5126,
			"count":268,
			"type":"VEC2"
		},
		{
			"bufferView":7,
			"componentType":5126,
			"count":268,
			"type":"VEC3"
		},
		{
			"bufferView":8,
			"componentType":5126,
			"count":268,
			"type":"VEC4"
		},
		{
			"bufferView":9,
			"componentType":5123,
			"count":756,
			"type":"SCALAR"
		},
		{
			"bufferView":10,
			"componentType":5126,
			"count":268,
			"max":[
				2.4042227268218994,
				0.5345750451087952,
				1.938289761543274
			],
			"min":[
				-1.932012915611267,
				-2.6683034896850586,
				-2.158815860748291
			],
			"type":"VEC3"
		},
		{
			"bufferView":11,
			"componentType":5126,
			"count":268,
			"type":"VEC2"
		},
		{
			"bufferView":12,
			"componentType":5126,
			"count":268,
			"type":"VEC3"
		},
		{
			"bufferView":13,
			"componentType":5126,
			"count":268,
			"type":"VEC4"
		},
		{
			"bufferView":14,
			"componentType":5123,
			"count":756,
			"type":"SCALAR"
		},
		{
			"bufferView":15,
			"componentType":5126,
			"count":145,
			"max":[
				0.737320601940155,
				0.0052887797355651855,
				0.841166079044342
			],
			"min":[
				-1.143048882484436,
				-1.5311517715454102,
				-1.1506797075271606
			],
			"type":"VEC3"
		},
		{
			"bufferView":16,
			"componentType":5126,
			"count":145,
			"type":"VEC2"
		},
		{
			"bufferView":17,
			"componentType":5126,
			"count":145,
			"type":"VEC3"
		},
		{
			"bufferView":18,
			"componentType":5126,
			"count":145,
			"type":"VEC4"
		},
		{
			"bufferView":19,
			"componentType":5123,
			"count":576,
			"type":"SCALAR"
		},
		{
			"bufferView":21,
			"componentType":5126,
			"count":182,
			"max":[
				0.9514874219894409,
				0,
				1.195851445198059
			],
			"min":[
				-0.9657240509986877,
				-1.1555479764938354,
				-1.5270386934280396
			],
			"type":"VEC3"
		},
		{
			"bufferView":22,
			"componentType":5126,
			"count":182,
			"type":"VEC2"
		},
		{
			"bufferView":23,
			"componentType":5126,
			"count":182,
			"type":"VEC3"
		},
		{
			"bufferView":24,
			"componentType":5126,
			"count":182,
			"type":"VEC4"
		},
		{
			"bufferView":25,
			"componentType":5123,
			"count":618,
			"type":"SCALAR"
		},
		{
			"bufferView":27,
			"componentType":5126,
			"count":189,
			"max":[
				0.9113235473632812,
				-0.010869927704334259,
				0.9923577308654785
			],
			"min":[
				-1.0796328783035278,
				-1.734182357788086,
				-1.3180736303329468
			],
			"type":"VEC3"
		},
		{
			"bufferView":28,
			"componentType":5126,
			"count":189,
			"type":"VEC2"
		},
		{
			"bufferView":29,
			"componentType":5126,
			"count":189,
			"type":"VEC3"
		},
		{
			"bufferView":30,
			"componentType":5126,
			"count":189,
			"type":"VEC4"
		},
		{
			"bufferView":31,
			"componentType":5123,
			"count":666,
			"type":"SCALAR"
		}
	],
	"bufferViews":[
		{
			"buffer":0,
			"byteLength":9888,
			"byteOffset":0,
			"target":34962
		},
		{
			"buffer":0,
			"byteLength":6592,
			"byteOffset":9888,
			"target":34962
		},
		{
			"buffer":0,
			"byteLength":9888,
			"byteOffset":16480,
			"target":34962
		},
		{
			"buffer":0,
			"byteLength":13184,
			"byteOffset":26368,
			"target":34962
		},
		{
			"buffer":0,
			"byteLength":5760,
			"byteOffset":39552,
			"target":34963
		},
		{
			"buffer":0,
			"byteLength":3216,
			"byteOffset":45312,
			"target":34962
		},
		{
			"buffer":0,
			"byteLength":2144,
			"byteOffset":48528,
			"target":34962
		},
		{
			"buffer":0,
			"byteLength":3216,
			"byteOffset":50672,
			"target":34962
		},
		{
			"buffer":0,
			"byteLength":4288,
			"byteOffset":53888,
			"target":34962
		},
		{
			"buffer":0,
			"byteLength":1512,
			"byteOffset":58176,
			"target":34963
		},
		{
			"buffer":0,
			"byteLength":3216,
			"byteOffset":59688,
			"target":34962
		},
		{
			"buffer":0,
			"byteLength":2144,
			"byteOffset":62904,
			"target":34962
		},
		{
			"buffer":0,
			"byteLength":3216,
			"byteOffset":65048,
			"target":34962
		},
		{
			"buffer":0,
			"byteLength":4288,
			"byteOffset":68264,
			"target":34962
		},
		{
			"buffer":0,
			"byteLength":1512,
			"byteOffset":72552,
			"target":34963
		},
		{
			"buffer":0,
			"byteLength":1740,
			"byteOffset":74064,
			"target":34962
		},
		{
			"buffer":0,
			"byteLength":1160,
			"byteOffset":75804,
			"target":34962
		},
		{
			"buffer":0,
			"byteLength":1740,
			"byteOffset":76964,
			"target":34962
		},
		{
			"buffer":0,
			"byteLength":2320,
			"byteOffset":78704,
			"target":34962
		},
		{
			"buffer":0,
			"byteLength":1152,
			"byteOffset":81024,
			"target":34963
		},
		{
			"buffer":0,
			"byteLength":616143,
			"byteOffset":82176
		},
		{
			"buffer":0,
			"byteLength":2184,
			"byteOffset":698320,
			"target":34962
		},
		{
			"buffer":0,
			"byteLength":1456,
			"byteOffset":700504,
			"target":34962
		},
		{
			"buffer":0,
			"byteLength":2184,
			"byteOffset":701960,
			"target":34962
		},
		{
			"buffer":0,
			"byteLength":2912,
			"byteOffset":704144,
			"target":34962
		},
		{
			"buffer":0,
			"byteLength":1236,
			"byteOffset":707056,
			"target":34963
		},
		{
			"buffer":0,
			"byteLength":4414,
			"byteOffset":708292
		},
		{
			"buffer":0,
			"byteLength":2268,
			"byteOffset":712708,
			"target":34962
		},
		{
			"buffer":0,
			"byteLength":1512,
			"byteOffset":714976,
			"target":34962
		},
		{
			"buffer":0,
			"byteLength":2268,
			"byteOffset":716488,
			"target":34962
		},
		{
			"buffer":0,
			"byteLength":3024,
			"byteOffset":718756,
			"target":34962
		},
		{
			"buffer":0,
			"byteLength":1332,
			"byteOffset":721780,
			"target":34963
		},
		{
			"buffer":0,
			"byteLength":6978,
			"byteOffset":723112
		}
	],
	"samplers":[
		{
			"magFilter":9729,
			"minFilter":9987
		}
	],
	"buffers":[
		{
			"byteLength":730092,
			"uri":"data:application/octet-stream;base64,"
		}
	]
}
