{
	"asset":{
		"generator":"Khronos glTF Blender I/O v3.5.30",
		"version":"2.0"
	},
	"extensionsUsed":[
		"KHR_materials_specular",
		"KHR_materials_ior"
	],
	"scene":0,
	"scenes":[
		{
			"name":"Scene",
			"nodes":[
				0,
				1,
				2,
				3,
				4,
				5
			]
		}
	],
	"nodes":[
		{
			"mesh":0,
			"name":"Sphere",
			"scale":[
				-3.992269515991211,
				-3.992269515991211,
				-3.992269515991211
			],
			"translation":[
				0,
				3.9946272373199463,
				0
			]
		},
		{
			"mesh":1,
			"name":"Sphere.001"
		},
		{
			"mesh":2,
			"name":"Sphere.002",
			"translation":[
				4.645101547241211,
				0.9140895009040833,
				-5.099478721618652
			]
		},
		{
			"mesh":3,
			"name":"Plane",
			"scale":[
				1.8450782299041748,
				1.8450782299041748,
				1.8450782299041748
			],
			"translation":[
				0,
				0,
				7.081954002380371
			]
		},
		{
			"mesh":4,
			"name":"Plane.001",
			"scale":[
				1.8450782299041748,
				1.8450782299041748,
				1.8450782299041748
			],
			"translation":[
				-5.386170864105225,
				0,
				7.081954002380371
			]
		},
		{
			"mesh":5,
			"name":"Plane.002",
			"scale":[
				1.8450782299041748,
				1.8450782299041748,
				1.8450782299041748
			],
			"translation":[
				4.740897178649902,
				0,
				7.081954002380371
			]
		}
	],
	"materials":[
		{
			"doubleSided":true,
			"extensions":{
				"KHR_materials_specular":{
					"specularColorFactor":[
						0,
						0,
						0
					]
				},
				"KHR_materials_ior":{
					"ior":1.4500000476837158
				}
			},
			"name":"Material",
			"pbrMetallicRoughness":{
				"baseColorTexture":{
					"index":0
				},
				"metallicFactor":0,
				"roughnessFactor":0.5
			}
		}
	],
	"meshes":[
		{
			"name":"Sphere",
			"primitives":[
				{
					"attributes":{
						"POSITION":0,
						"TEXCOORD_0":1,
						"NORMAL":2
					},
					"indices":3
				}
			]
		},
		{
			"name":"Sphere.001",
			"primitives":[
				{
					"attributes":{
						"POSITION":4,
						"TEXCOORD_0":5,
						"NORMAL":6
					},
					"indices":7
				}
			]
		},
		{
			"name":"Sphere.003",
			"primitives":[
				{
					"attributes":{
						"POSITION":8,
						"TEXCOORD_0":9,
						"NORMAL":10
					},
					"indices":11
				}
			]
		},
		{
			"name":"Plane",
			"primitives":[
				{
					"attributes":{
						"POSITION":12,
						"TEXCOORD_0":13,
						"NORMAL":14
					},
					"indices":15
				}
			]
		},
		{
			"name":"Plane.001",
			"primitives":[
				{
					"attributes":{
						"POSITION":16,
						"TEXCOORD_0":17,
						"NORMAL":18
					},
					"indices":19
				}
			]
		},
		{
			"name":"Plane.002",
			"primitives":[
				{
					"attributes":{
						"POSITION":20,
						"TEXCOORD_0":21,
						"NORMAL":22
					},
					"indices":23,
					"material":0
				}
			]
		}
	],
	"textures":[
		{
			"sampler":0,
			"source":0
		}
	],
	"images":[
		{
			"bufferView":24,
			"mimeType":"image/png",
			"name":"island_tex"
		}
	],
	"accessors":[
		{
			"bufferView":0,
			"componentType":5126,
			"count":814,
			"max":[
				0.9208283424377441,
				1.2029390335083008,
				0.9149860739707947
			],
			"min":[
				-1.0726025104522705,
				-0.19581055641174316,
				-0.9163647890090942
			],
			"type":"VEC3"
		},
		{
			"bufferView":1,
			"componentType":5126,
			"count":814,
			"type":"VEC2"
		},
		{
			"bufferView":2,
			"componentType":5126,
			"count":814,
			"type":"VEC3"
		},
		{
			"bufferView":3,
			"componentType":5123,
			"count":2880,
			"type":"SCALAR"
		},
		{
			"bufferView":4,
			"componentType":5126,
			"count":265,
			"max":[
				1.6637831926345825,
				0.5610868334770203,
				2.283663272857666
			],
			"min":[
				-1.6717158555984497,
				-1.7352186441421509,
				-1.832070231437683
			],
			"type":"VEC3"
		},
		{
			"bufferView":5,
			"componentType":5126,
			"count":265,
			"type":"VEC2"
		},
		{
			"bufferView":6,
			"componentType":5126,
			"count":265,
			"type":"VEC3"
		},
		{
			"bufferView":7,
			"componentType":5123,
			"count":756,
			"type":"SCALAR"
		},
		{
			"bufferView":8,
			"componentType":5126,
			"count":265,
			"max":[
				2.4042227268218994,
				0.5345750451087952,
				1.938289761543274
			],
			"min":[
				-1.932012915611267,
				-2.6683034896850586,
				-2.158815860748291
			],
			"type":"VEC3"
		},
		{
			"bufferView":9,
			"componentType":5126,
			"count":265,
			"type":"VEC2"
		},
		{
			"bufferView":10,
			"componentType":5126,
			"count":265,
			"type":"VEC3"
		},
		{
			"bufferView":11,
			"componentType":5123,
			"count":756,
			"type":"SCALAR"
		},
		{
			"bufferView":12,
			"componentType":5126,
			"count":145,
			"max":[
				0.737320601940155,
				0.0052887797355651855,
				0.841166079044342
			],
			"min":[
				-1.143048882484436,
				-1.5311517715454102,
				-1.1506797075271606
			],
			"type":"VEC3"
		},
		{
			"bufferView":13,
			"componentType":5126,
			"count":145,
			"type":"VEC2"
		},
		{
			"bufferView":14,
			"componentType":5126,
			"count":145,
			"type":"VEC3"
		},
		{
			"bufferView":15,
			"componentType":5123,
			"count":576,
			"type":"SCALAR"
		},
		{
			"bufferView":16,
			"componentType":5126,
			"count":180,
			"max":[
				0.9514874219894409,
				0,
				1.195851445198059
			],
			"min":[
				-0.9657240509986877,
				-1.1555479764938354,
				-1.5270386934280396
			],
			"type":"VEC3"
		},
		{
			"bufferView":17,
			"componentType":5126,
			"count":180,
			"type":"VEC2"
		},
		{
			"bufferView":18,
			"componentType":5126,
			"count":180,
			"type":"VEC3"
		},
		{
			"bufferView":19,
			"componentType":5123,
			"count":618,
			"type":"SCALAR"
		},
		{
			"bufferView":20,
			"componentType":5126,
			"count":189,
			"max":[
				0.9113235473632812,
				-0.010869927704334259,
				0.9923577308654785
			],
			"min":[
				-1.0796328783035278,
				-1.734182357788086,
				-1.3180736303329468
			],
			"type":"VEC3"
		},
		{
			"bufferView":21,
			"componentType":5126,
			"count":189,
			"type":"VEC2"
		},
		{
			"bufferView":22,
			"componentType":5126,
			"count":189,
			"type":"VEC3"
		},
		{
			"bufferView":23,
			"componentType":5123,
			"count":666,
			"type":"SCALAR"
		}
	],
	"bufferViews":[
		{
			"buffer":0,
			"byteLength":9768,
			"byteOffset":0,
			"target":34962
		},
		{
			"buffer":0,
			"byteLength":6512,
			"byteOffset":9768,
			"target":34962
		},
		{
			"buffer":0,
			"byteLength":9768,
			"byteOffset":16280,
			"target":34962
		},
		{
			"buffer":0,
			"byteLength":5760,
			"byteOffset":26048,
			"target":34963
		},
		{
			"buffer":0,
			"byteLength":3180,
			"byteOffset":31808,
			"target":34962
		},
		{
			"buffer":0,
			"byteLength":2120,
			"byteOffset":34988,
			"target":34962
		},
		{
			"buffer":0,
			"byteLength":3180,
			"byteOffset":37108,
			"target":34962
		},
		{
			"buffer":0,
			"byteLength":1512,
			"byteOffset":40288,
			"target":34963
		},
		{
			"buffer":0,
			"byteLength":3180,
			"byteOffset":41800,
			"target":34962
		},
		{
			"buffer":0,
			"byteLength":2120,
			"byteOffset":44980,
			"target":34962
		},
		{
			"buffer":0,
			"byteLength":3180,
			"byteOffset":47100,
			"target":34962
		},
		{
			"buffer":0,
			"byteLength":1512,
			"byteOffset":50280,
			"target":34963
		},
		{
			"buffer":0,
			"byteLength":1740,
			"byteOffset":51792,
			"target":34962
		},
		{
			"buffer":0,
			"byteLength":1160,
			"byteOffset":53532,
			"target":34962
		},
		{
			"buffer":0,
			"byteLength":1740,
			"byteOffset":54692,
			"target":34962
		},
		{
			"buffer":0,
			"byteLength":1152,
			"byteOffset":56432,
			"target":34963
		},
		{
			"buffer":0,
			"byteLength":2160,
			"byteOffset":57584,
			"target":34962
		},
		{
			"buffer":0,
			"byteLength":1440,
			"byteOffset":59744,
			"target":34962
		},
		{
			"buffer":0,
			"byteLength":2160,
			"byteOffset":61184,
			"target":34962
		},
		{
			"buffer":0,
			"byteLength":1236,
			"byteOffset":63344,
			"target":34963
		},
		{
			"buffer":0,
			"byteLength":2268,
			"byteOffset":64580,
			"target":34962
		},
		{
			"buffer":0,
			"byteLength":1512,
			"byteOffset":66848,
			"target":34962
		},
		{
			"buffer":0,
			"byteLength":2268,
			"byteOffset":68360,
			"target":34962
		},
		{
			"buffer":0,
			"byteLength":1332,
			"byteOffset":70628,
			"target":34963
		},
		{
			"buffer":0,
			"byteLength":4753,
			"byteOffset":71960
		}
	],
	"samplers":[
		{
			"magFilter":9729,
			"minFilter":9987
		}
	],
	"buffers":[
		{
			"byteLength":76716,
			"uri":"data:application/octet-stream;base64,"
		}
	]
}
