{
	"asset":{
		"generator":"Khronos glTF Blender I/O v3.5.30",
		"version":"2.0"
	},
	"scene":0,
	"scenes":[
		{
			"name":"Scene",
			"nodes":[
				0
			]
		}
	],
	"nodes":[
		{
			"mesh":0,
			"name":"Plane",
			"scale":[
				1.8450782299041748,
				1.8450782299041748,
				1.8450782299041748
			],
			"translation":[
				0,
				0,
				7.081954002380371
			]
		}
	],
	"materials":[
		{
			"doubleSided":true,
			"name":"Material.001",
			"pbrMetallicRoughness":{
				"baseColorTexture":{
					"index":0
				},
				"metallicFactor":0,
				"roughnessFactor":0.5
			}
		}
	],
	"meshes":[
		{
			"name":"Plane",
			"primitives":[
				{
					"attributes":{
						"POSITION":0,
						"TEXCOORD_0":1,
						"NORMAL":2,
						"TANGENT":3
					},
					"indices":4,
					"material":0
				}
			]
		}
	],
	"textures":[
		{
			"sampler":0,
			"source":0
		}
	],
	"images":[
		{
			"bufferView":5,
			"mimeType":"image/png",
			"name":"marble"
		}
	],
	"accessors":[
		{
			"bufferView":0,
			"componentType":5126,
			"count":145,
			"max":[
				0.737320601940155,
				0.0052887797355651855,
				0.841166079044342
			],
			"min":[
				-1.143048882484436,
				-1.5311517715454102,
				-1.1506797075271606
			],
			"type":"VEC3"
		},
		{
			"bufferView":1,
			"componentType":5126,
			"count":145,
			"type":"VEC2"
		},
		{
			"bufferView":2,
			"componentType":5126,
			"count":145,
			"type":"VEC3"
		},
		{
			"bufferView":3,
			"componentType":5126,
			"count":145,
			"type":"VEC4"
		},
		{
			"bufferView":4,
			"componentType":5123,
			"count":576,
			"type":"SCALAR"
		}
	],
	"bufferViews":[
		{
			"buffer":0,
			"byteLength":1740,
			"byteOffset":0,
			"target":34962
		},
		{
			"buffer":0,
			"byteLength":1160,
			"byteOffset":1740,
			"target":34962
		},
		{
			"buffer":0,
			"byteLength":1740,
			"byteOffset":2900,
			"target":34962
		},
		{
			"buffer":0,
			"byteLength":2320,
			"byteOffset":4640,
			"target":34962
		},
		{
			"buffer":0,
			"byteLength":1152,
			"byteOffset":6960,
			"target":34963
		},
		{
			"buffer":0,
			"byteLength":10603,
			"byteOffset":8112
		}
	],
	"samplers":[
		{
			"magFilter":9729,
			"minFilter":9987
		}
	],
	"buffers":[
		{
			"byteLength":18716,
			"uri":"data:application/octet-stream;base64,"
		}
	]
}
