{
	"asset":{
		"generator":"Khronos glTF Blender I/O v3.5.30",
		"version":"2.0"
	},
	"extensionsUsed":[
		"KHR_materials_specular"
	],
	"scene":0,
	"scenes":[
		{
			"name":"Scene",
			"nodes":[
				0
			]
		}
	],
	"nodes":[
		{
			"mesh":0,
			"name":"tree"
		}
	],
	"materials":[
		{
			"doubleSided":true,
			"extensions":{
				"KHR_materials_specular":{
					"specularColorFactor":[
						0,
						0,
						0
					]
				}
			},
			"name":"leaf",
			"pbrMetallicRoughness":{
				"baseColorTexture":{
					"index":0
				},
				"metallicFactor":0,
				"roughnessFactor":0.9018181562423706
			}
		},
		{
			"doubleSided":true,
			"name":"Trunk",
			"pbrMetallicRoughness":{
				"baseColorTexture":{
					"index":1
				},
				"metallicFactor":0,
				"roughnessFactor":0.9863635897636414
			}
		}
	],
	"meshes":[
		{
			"name":"BezierCurve",
			"primitives":[
				{
					"attributes":{
						"POSITION":0,
						"TEXCOORD_0":1,
						"NORMAL":2
					},
					"indices":3,
					"material":0
				},
				{
					"attributes":{
						"POSITION":4,
						"TEXCOORD_0":5,
						"NORMAL":6
					},
					"indices":7,
					"material":1
				}
			]
		}
	],
	"textures":[
		{
			"sampler":0,
			"source":0
		},
		{
			"sampler":0,
			"source":1
		}
	],
	"images":[
		{
			"bufferView":4,
			"mimeType":"image/png",
			"name":"Leaf"
		},
		{
			"bufferView":9,
			"mimeType":"image/png",
			"name":"Trunk_Colour"
		}
	],
	"accessors":[
		{
			"bufferView":0,
			"componentType":5126,
			"count":792,
			"max":[
				0.8023989200592041,
				4.825112342834473,
				1.6511375904083252
			],
			"min":[
				-2.1268057823181152,
				2.102682113647461,
				-2.105618953704834
			],
			"type":"VEC3"
		},
		{
			"bufferView":1,
			"componentType":5126,
			"count":792,
			"type":"VEC2"
		},
		{
			"bufferView":2,
			"componentType":5126,
			"count":792,
			"type":"VEC3"
		},
		{
			"bufferView":3,
			"componentType":5123,
			"count":1512,
			"type":"SCALAR"
		},
		{
			"bufferView":5,
			"componentType":5126,
			"count":428,
			"max":[
				0.39988523721694946,
				3.806544303894043,
				0.39988523721694946
			],
			"min":[
				-0.966288149356842,
				-7.786052691471923e-08,
				-0.39988523721694946
			],
			"type":"VEC3"
		},
		{
			"bufferView":6,
			"componentType":5126,
			"count":428,
			"type":"VEC2"
		},
		{
			"bufferView":7,
			"componentType":5126,
			"count":428,
			"type":"VEC3"
		},
		{
			"bufferView":8,
			"componentType":5123,
			"count":612,
			"type":"SCALAR"
		}
	],
	"bufferViews":[
		{
			"buffer":0,
			"byteLength":9504,
			"byteOffset":0,
			"target":34962
		},
		{
			"buffer":0,
			"byteLength":6336,
			"byteOffset":9504,
			"target":34962
		},
		{
			"buffer":0,
			"byteLength":9504,
			"byteOffset":15840,
			"target":34962
		},
		{
			"buffer":0,
			"byteLength":3024,
			"byteOffset":25344,
			"target":34963
		},
		{
			"buffer":0,
			"byteLength":6510,
			"byteOffset":28368
		},
		{
			"buffer":0,
			"byteLength":5136,
			"byteOffset":34880,
			"target":34962
		},
		{
			"buffer":0,
			"byteLength":3424,
			"byteOffset":40016,
			"target":34962
		},
		{
			"buffer":0,
			"byteLength":5136,
			"byteOffset":43440,
			"target":34962
		},
		{
			"buffer":0,
			"byteLength":1224,
			"byteOffset":48576,
			"target":34963
		},
		{
			"buffer":0,
			"byteLength":5553,
			"byteOffset":49800
		}
	],
	"samplers":[
		{
			"magFilter":9729,
			"minFilter":9987
		}
	],
	"buffers":[
		{
			"byteLength":55356,
			"uri":"data:application/octet-stream;base64,"
		}
	]
}
