# Blender 3.5.0
# www.blender.org
mtllib cloud.mtl
o Cube
v -1.461751 -0.464837 0.989629
v -1.352065 0.250000 1.352065
v -1.352065 -0.494505 -1.120418
v -1.352065 0.250000 -1.352065
v 1.743064 -0.250000 1.627453
v 1.352065 0.250000 1.352065
v 1.427511 -0.439973 -1.708846
v 1.352065 0.250000 -1.352065
vn -0.9968 0.0770 -0.0232
vn -0.1071 0.0808 -0.9910
vn 0.9279 0.3678 -0.0600
vn -0.1034 -0.0949 0.9901
vn 0.0446 -0.9983 0.0386
vn -0.0000 1.0000 -0.0000
vt 0.375000 0.000000
vt 0.375000 1.000000
vt 0.125000 0.750000
vt 0.625000 0.000000
vt 0.625000 1.000000
vt 0.875000 0.750000
vt 0.375000 0.250000
vt 0.125000 0.500000
vt 0.625000 0.250000
vt 0.875000 0.500000
vt 0.375000 0.750000
vt 0.625000 0.750000
vt 0.375000 0.500000
vt 0.625000 0.500000
s 0
usemtl Material.001
f 1/1/1 2/4/1 4/9/1 3/7/1
f 3/7/2 4/9/2 8/14/2 7/13/2
f 7/13/3 8/14/3 6/12/3 5/11/3
f 5/11/4 6/12/4 2/5/4 1/2/4
f 3/8/5 7/13/5 5/11/5 1/3/5
f 8/14/6 4/10/6 2/6/6 6/12/6
