# Blender 3.5.0
# www.blender.org
mtllib island.mtl
o Sphere.001
v 0.000000 0.380123 -1.656562
v -0.002318 0.459313 -1.832070
v 0.022708 -0.318417 -0.819902
v -0.026886 -1.429507 -0.365227
v 0.265487 0.469830 -0.640943
v 0.492981 0.561087 -1.190162
v 0.634877 0.392057 -1.532729
v 0.675426 0.421850 -1.591678
v 0.358272 -0.928889 -0.829321
v 0.325162 -1.191690 -0.610553
v 0.180107 -0.960052 -0.296834
v 0.488993 0.389770 -0.488993
v 0.909212 0.525580 -0.909212
v 1.173235 0.392985 -1.173235
v 1.136491 0.378707 -1.137524
v 0.612010 -1.060368 -0.598932
v 0.529261 -1.303846 -0.510622
v 0.380280 -1.446398 -0.338937
v 0.640337 0.446072 -0.265236
v 1.176064 0.335513 -0.487141
v 1.545133 0.457395 -0.640015
v 1.584120 0.418499 -0.656671
v 0.785976 -1.087959 -0.417967
v 0.401726 -1.423498 -0.258530
v 0.694182 0.485432 0.000000
v 1.268606 0.271120 0.000000
v 1.663783 0.415266 0.000000
v 1.653641 0.398349 -0.000795
v 0.748064 -1.031772 -0.166495
v 0.642359 -1.280778 -0.166872
v 0.433298 -1.446045 -0.166682
v 0.641460 0.490117 0.265702
v 1.188166 0.529159 0.492155
v 1.535815 0.408312 0.636156
v 1.586661 0.421298 0.656733
v 0.831766 -0.983526 0.246955
v 0.559624 -1.219570 0.119053
v 0.331143 -1.420571 -0.025873
v 0.489684 0.425159 0.489684
v 0.900025 0.333523 0.900025
v 1.185774 0.479285 1.185775
v 1.181704 0.400258 1.149859
v 0.656313 -0.999832 0.559389
v 0.496464 -1.318148 0.400639
v 0.198710 -1.358523 0.253891
v 0.265469 0.468161 0.640900
v 0.487312 0.342103 1.176475
v 0.625851 0.277273 1.510938
v 0.685977 0.445531 1.642987
v 0.310996 -0.278088 0.688945
v 0.187439 -1.386490 0.536842
v 0.136279 -1.689865 0.350566
v -0.000000 0.402514 0.691892
v -0.000000 0.260287 1.267873
v -0.000000 0.504143 1.682046
v -0.000001 0.436543 1.729453
v -0.000000 -0.356789 0.879193
v -0.016254 -1.419602 0.616192
v -0.000000 -1.616310 0.342453
v -0.012371 -1.735219 0.006006
v 0.000000 0.546791 0.000000
v -0.265386 0.460224 0.640698
v -0.492309 0.535096 1.188537
v -0.628518 0.311185 1.517376
v -0.646620 0.428103 1.561078
v -0.418380 -0.542025 0.795203
v -0.333871 -1.310163 0.591181
v -0.140587 -1.672883 0.339407
v -0.491435 0.514781 0.491434
v -0.905690 0.451946 0.905689
v -1.182518 0.456871 1.182517
v -1.186521 0.425618 1.186520
v -0.595047 -0.501628 0.594924
v -0.486693 -1.308827 0.486569
v -0.246032 -1.628772 0.246032
v -0.637783 0.346023 0.264178
v -1.179289 0.387114 0.488477
v -1.551003 0.488316 0.642446
v -1.487552 0.411208 0.616163
v -0.719691 -0.494586 0.386927
v -0.542656 -1.276971 0.313597
v -0.244530 -1.439734 0.101288
v -0.693646 0.466012 -0.000000
v -1.276222 0.383711 -0.000001
v -1.671716 0.453872 -0.000001
v -1.667680 0.423429 -0.000001
v -0.866416 -0.351246 0.001389
v -0.633315 -1.412135 0.037452
v -0.366767 -1.671511 -0.000000
v -0.641932 0.508581 -0.265897
v -1.177325 0.355708 -0.487665
v -1.539510 0.427776 -0.637686
v -1.554232 0.426530 -0.643785
v -0.759392 -0.323625 -0.314551
v -0.569422 -1.433659 -0.235863
v -0.323562 -1.633946 -0.134024
v -0.491821 0.534575 -0.491821
v -0.902148 0.377925 -0.902149
v -1.173377 0.393969 -1.173378
v -1.285433 0.455315 -1.285434
v -0.590968 -0.331618 -0.590968
v -0.388985 -1.391911 -0.388985
v -0.223139 -1.555268 -0.223139
v -0.266362 0.552665 -0.643057
v -0.489068 0.409954 -1.180716
v -0.637555 0.426123 -1.539196
v -0.662784 0.437071 -1.600106
v -0.311917 -0.302246 -0.729082
v -0.275240 -1.384514 -0.486040
v -0.176876 -1.618330 -0.298873
v 0.000000 0.523944 -0.695246
v 0.000001 0.520257 -1.285460
v 0.012693 -0.832554 -0.646331
v -0.464057 -0.567269 0.814579
v -0.382754 -1.306271 0.618296
v -0.634023 -0.528404 0.621897
v -0.529779 -1.304986 0.517652
v -0.753939 -0.521629 0.421790
v -0.583620 -1.274338 0.351241
v 0.660533 -1.133575 -0.587578
v 0.585552 -1.354199 -0.507557
v 0.450555 -1.483371 -0.351988
v 0.818170 -1.158576 -0.423599
v 0.660568 -1.337945 -0.358329
v 0.469989 -1.462620 -0.279128
v 0.783817 -1.107664 -0.195732
v 0.688034 -1.333296 -0.196074
v 0.498597 -1.483050 -0.195901
vn -0.3107 -0.3029 -0.9010
vn -0.2334 -0.6122 -0.7554
vn -0.2687 -0.5723 -0.7748
vn -0.5131 -0.3640 -0.7773
vn 0.0049 0.9259 0.3778
vn -0.1176 0.9026 0.4142
vn -0.0447 0.9884 -0.1448
vn 0.0009 0.9998 -0.0187
vn 0.0857 0.9901 0.1115
vn 0.0743 0.9925 -0.0973
vn 0.2702 -0.8556 -0.4416
vn -0.2039 -0.6926 -0.6919
vn -0.2145 -0.6079 -0.7645
vn -0.0252 0.9607 -0.2763
vn 0.1351 0.9274 -0.3489
vn 0.0516 0.9959 0.0747
vn 0.8092 -0.4376 -0.3920
vn 0.6270 -0.4673 -0.6233
vn 0.8839 -0.3435 -0.3174
vn -0.6940 -0.3466 -0.6311
vn -0.7572 -0.5461 -0.3584
vn -0.6936 -0.3673 -0.6197
vn 0.5721 -0.4811 -0.6642
vn 0.5407 -0.4840 -0.6881
vn 0.6009 -0.4643 -0.6506
vn 0.5270 -0.3453 -0.7766
vn 0.1023 0.9937 0.0447
vn 0.1587 0.9806 -0.1154
vn 0.0883 0.9907 0.1038
vn -0.5776 -0.1686 -0.7987
vn 0.2810 -0.5439 -0.7907
vn -0.3553 0.8032 0.4781
vn 0.0279 0.9953 0.0931
vn -0.1234 0.9854 0.1174
vn 0.1460 0.9891 -0.0180
vn 0.5304 -0.8335 -0.1544
vn -0.1055 -0.9879 -0.1136
vn 0.0512 -0.9987 0.0078
vn -0.2939 -0.3819 -0.8762
vn 0.5073 -0.0954 -0.8565
vn -0.3188 -0.4084 -0.8553
vn 0.7736 -0.1846 -0.6062
vn 0.6566 -0.4434 -0.6101
vn 0.9064 -0.3926 0.1560
vn 0.5267 -0.3869 0.7569
vn 0.6564 -0.5546 0.5114
vn 0.8640 -0.0862 0.4960
vn 0.7259 0.0124 -0.6877
vn 0.0754 -0.9821 0.1724
vn 0.0383 -0.9991 0.0194
vn 0.2119 -0.8918 0.3998
vn 0.8701 0.4819 -0.1032
vn 0.1982 0.9705 -0.1376
vn 0.0478 0.9941 -0.0977
vn 1.0000 0.0035 0.0039
vn 0.9958 -0.0768 0.0494
vn 0.8648 -0.5020 -0.0102
vn 0.8628 -0.5055 0.0061
vn -0.1459 0.9889 -0.0292
vn 0.0332 0.9986 0.0406
vn -0.0023 0.9993 -0.0361
vn 0.5358 -0.7375 0.4111
vn 0.5167 -0.7673 0.3797
vn 0.6397 -0.7530 0.1538
vn 0.5361 -0.7876 0.3039
vn 0.8118 -0.5206 0.2644
vn 0.8165 -0.5282 0.2331
vn -0.0343 0.9969 -0.0708
vn 0.6201 -0.6293 0.4684
vn 0.0952 0.9955 0.0020
vn 0.6359 -0.7669 0.0863
vn 0.5522 -0.8335 0.0209
vn 0.7132 -0.5005 0.4907
vn 0.7210 -0.5243 0.4531
vn -0.0671 0.9898 0.1260
vn -0.1400 0.9894 0.0378
vn 0.0310 0.9806 0.1933
vn 0.6285 -0.6416 0.4398
vn 0.7484 0.4088 0.5223
vn 0.0075 0.9852 0.1710
vn 0.8962 -0.2713 -0.3509
vn 0.1509 -0.2390 0.9592
vn 0.0748 -0.5097 0.8571
vn 0.1960 -0.5603 0.8048
vn 0.3274 -0.2183 0.9193
vn -0.4594 0.7685 -0.4454
vn -0.0834 0.9752 -0.2048
vn -0.1607 0.8542 -0.4945
vn -0.0262 0.9990 0.0359
vn 0.7203 -0.6926 -0.0398
vn 0.0444 -0.5998 0.7989
vn 0.1300 -0.6833 0.7185
vn 0.2343 -0.2382 0.9425
vn 0.2304 -0.2307 0.9454
vn 0.0642 0.9767 -0.2048
vn 0.0262 0.8695 -0.4933
vn 0.0896 0.9753 0.2019
vn -0.1384 0.9561 0.2584
vn 0.0726 -0.6780 0.7315
vn -0.0394 -0.6996 0.7134
vn 0.0600 -0.7555 0.6524
vn 0.0978 -0.7345 0.6715
vn 0.0840 -0.7306 0.6776
vn 0.1847 0.9820 -0.0391
vn -0.4658 -0.8288 0.3100
vn -0.1240 -0.7037 0.6996
vn 0.0434 -0.8017 0.5961
vn -0.2716 -0.6781 0.6829
vn -0.3179 -0.6721 0.6688
vn 0.0886 0.9917 0.0932
vn -0.0183 0.9960 0.0871
vn 0.1764 0.9797 0.0957
vn 0.3504 -0.8870 0.3006
vn -0.1167 -0.2496 0.9613
vn -0.0138 0.8782 -0.4781
vn -0.5818 -0.6628 0.4714
vn -0.5852 -0.6505 0.4842
vn -0.0556 0.9981 -0.0262
vn -0.0059 0.9964 0.0848
vn -0.1260 0.9837 -0.1286
vn -0.3993 -0.9167 0.0178
vn -0.4876 -0.8029 0.3429
vn -0.4798 -0.7951 0.3710
vn -0.9792 0.2027 0.0134
vn -0.8626 -0.4896 -0.1271
vn -0.7683 -0.6008 -0.2208
vn -0.9468 0.3136 -0.0718
vn 0.5129 0.5149 -0.6869
vn -0.5118 -0.6922 0.5088
vn -0.7382 -0.4064 -0.5384
vn -0.7414 -0.5431 -0.3942
vn -0.7455 -0.5509 -0.3753
vn 0.1079 0.4740 0.8739
vn -0.3574 0.8669 0.3475
vn -0.3446 0.8675 0.3587
vn 0.1272 0.4480 0.8849
vn -0.7452 -0.4996 0.4416
vn -0.7826 -0.5323 0.3229
vn -0.6819 -0.6829 0.2618
vn -0.1546 0.9877 -0.0228
vn 0.0300 0.9974 -0.0652
vn -0.7600 -0.5874 -0.2781
vn -0.6893 -0.6729 0.2685
vn 0.1505 0.9849 -0.0855
vn -0.4119 0.8383 -0.3573
vn -0.8064 -0.5555 0.2026
vn -0.6964 -0.7176 -0.0078
vn -0.1071 0.9849 0.1361
vn 0.0481 0.9988 0.0123
vn -0.1436 -0.5705 0.8087
vn -0.1673 -0.6581 0.7341
vn -0.1355 -0.5479 0.8255
vn -0.6992 -0.7148 -0.0142
vn 0.1952 0.9799 -0.0409
vn -0.0810 -0.3630 0.9283
vn -0.9208 -0.2115 0.3277
vn -0.5157 -0.8215 -0.2434
vn -0.6407 -0.7419 -0.1977
vn -0.4718 -0.7737 -0.4229
vn -0.3463 -0.8177 -0.4598
vn -0.6210 -0.7469 -0.2377
vn -0.6210 -0.7469 -0.2376
vn -0.0434 0.9989 -0.0182
vn 0.1631 0.9858 0.0390
vn -0.1906 0.9816 -0.0129
vn -0.0613 -0.8685 -0.4918
vn -0.9409 -0.1979 -0.2750
vn -0.8648 -0.2109 -0.4556
vn -0.8618 -0.2116 -0.4611
vn -0.9205 0.3455 -0.1826
vn -0.0957 0.9946 -0.0395
vn 0.0821 0.9915 0.1009
vn -0.1799 0.9802 -0.0831
vn -0.3728 -0.7857 -0.4936
vn -0.6395 -0.2255 -0.7350
vn -0.6395 -0.2255 -0.7349
vn 0.2994 0.9411 0.1574
vn 0.2166 0.9498 0.2258
vn -0.3883 -0.7465 -0.5404
vn -0.4368 -0.7832 -0.4426
vn -0.4367 -0.7832 -0.4426
vn -0.7205 -0.6816 0.1274
vn -0.6699 -0.7202 -0.1805
vn -0.3268 -0.2442 -0.9130
vn -0.0044 0.9985 0.0554
vn 0.1294 0.9414 0.3115
vn -0.1086 0.9891 -0.0994
vn -0.1094 0.9897 -0.0921
vn -0.6149 -0.7114 -0.3402
vn -0.2319 -0.7792 -0.5823
vn -0.2313 -0.7793 -0.5824
vn 0.3932 -0.5051 -0.7683
vn 0.3246 -0.4469 -0.8336
vn -0.6772 -0.2220 0.7015
vn -0.7952 -0.2180 0.5658
vn 0.2935 -0.7171 0.6321
vn 0.2543 -0.7809 0.5706
vn -0.1116 -0.9932 -0.0319
vn -0.1138 -0.9929 -0.0351
vn 0.6386 -0.6793 -0.3615
vn 0.7370 -0.1057 -0.6676
vn 0.7106 -0.6774 -0.1902
vn -0.0600 -0.9500 -0.3064
vt 0.750000 0.625000
vt 0.750000 0.500000
vt 0.750000 0.375000
vt 0.750000 0.125000
vt 0.687500 0.875000
vt 0.687500 0.750000
vt 0.687500 0.625000
vt 0.687500 0.500000
vt 0.687500 0.375000
vt 0.687500 0.250000
vt 0.687500 0.125000
vt 0.625000 0.875000
vt 0.625000 0.750000
vt 0.625000 0.625000
vt 0.625000 0.500000
vt 0.625000 0.375000
vt 0.625000 0.250000
vt 0.625000 0.125000
vt 0.562500 0.875000
vt 0.562500 0.750000
vt 0.562500 0.625000
vt 0.562500 0.500000
vt 0.562500 0.375000
vt 0.562500 0.125000
vt 0.500000 0.875000
vt 0.500000 0.750000
vt 0.500000 0.625000
vt 0.500000 0.500000
vt 0.500000 0.375000
vt 0.500000 0.250000
vt 0.500000 0.125000
vt 0.437500 0.875000
vt 0.437500 0.750000
vt 0.437500 0.625000
vt 0.437500 0.500000
vt 0.437500 0.375000
vt 0.437500 0.250000
vt 0.437500 0.125000
vt 0.375000 0.875000
vt 0.375000 0.750000
vt 0.375000 0.625000
vt 0.375000 0.500000
vt 0.375000 0.375000
vt 0.375000 0.250000
vt 0.375000 0.125000
vt 0.312500 0.875000
vt 0.312500 0.750000
vt 0.312500 0.625000
vt 0.312500 0.500000
vt 0.312500 0.375000
vt 0.312500 0.250000
vt 0.312500 0.125000
vt 0.250000 0.875000
vt 0.250000 0.750000
vt 0.250000 0.625000
vt 0.250000 0.500000
vt 0.250000 0.375000
vt 0.250000 0.250000
vt 0.250000 0.125000
vt 0.718750 0.000000
vt 0.656250 0.000000
vt 0.593750 0.000000
vt 0.531250 0.000000
vt 0.468750 0.000000
vt 0.406250 0.000000
vt 0.343750 0.000000
vt 0.281250 0.000000
vt 0.218750 0.000000
vt 0.156250 0.000000
vt 0.093750 0.000000
vt 0.031250 0.000000
vt 0.968750 0.000000
vt 0.906250 0.000000
vt 0.843750 0.000000
vt 0.781250 0.000000
vt 0.718750 1.000000
vt 0.656250 1.000000
vt 0.593750 1.000000
vt 0.531250 1.000000
vt 0.468750 1.000000
vt 0.406250 1.000000
vt 0.343750 1.000000
vt 0.281250 1.000000
vt 0.218750 1.000000
vt 0.156250 1.000000
vt 0.093750 1.000000
vt 0.031250 1.000000
vt 0.968750 1.000000
vt 0.906250 1.000000
vt 0.843750 1.000000
vt 0.781250 1.000000
vt 0.187500 0.875000
vt 0.187500 0.750000
vt 0.187500 0.625000
vt 0.187500 0.500000
vt 0.187500 0.375000
vt 0.187500 0.250000
vt 0.187500 0.125000
vt 0.125000 0.875000
vt 0.125000 0.750000
vt 0.125000 0.625000
vt 0.125000 0.500000
vt 0.125000 0.375000
vt 0.125000 0.250000
vt 0.125000 0.125000
vt 0.062500 0.875000
vt 0.062500 0.750000
vt 0.062500 0.625000
vt 0.062500 0.500000
vt 0.062500 0.375000
vt 0.062500 0.250000
vt 0.062500 0.125000
vt 0.000000 0.875000
vt 1.000000 0.875000
vt 0.000000 0.750000
vt 1.000000 0.750000
vt 0.000000 0.625000
vt 1.000000 0.625000
vt 0.000000 0.500000
vt 1.000000 0.500000
vt 0.000000 0.375000
vt 1.000000 0.375000
vt 0.000000 0.250000
vt 1.000000 0.250000
vt 0.000000 0.125000
vt 1.000000 0.125000
vt 0.937500 0.875000
vt 0.937500 0.750000
vt 0.937500 0.625000
vt 0.937500 0.500000
vt 0.937500 0.375000
vt 0.937500 0.250000
vt 0.937500 0.125000
vt 0.875000 0.875000
vt 0.875000 0.750000
vt 0.875000 0.625000
vt 0.875000 0.500000
vt 0.875000 0.375000
vt 0.875000 0.250000
vt 0.875000 0.125000
vt 0.812500 0.875000
vt 0.812500 0.750000
vt 0.812500 0.625000
vt 0.812500 0.500000
vt 0.812500 0.375000
vt 0.812500 0.250000
vt 0.812500 0.125000
vt 0.750000 0.875000
vt 0.750000 0.750000
vt 0.750000 0.250000
vt 0.187500 0.375000
vt 0.187500 0.250000
vt 0.125000 0.375000
vt 0.125000 0.250000
vt 0.062500 0.375000
vt 0.062500 0.250000
vt 0.625000 0.375000
vt 0.625000 0.250000
vt 0.625000 0.125000
vt 0.562500 0.375000
vt 0.562500 0.250000
vt 0.562500 0.125000
vt 0.500000 0.375000
vt 0.500000 0.250000
vt 0.500000 0.125000
s 1
usemtl Material.001
f 113/150/1 3/3/2 9/9/3 10/10/4
f 2/2/5 1/1/5 7/7/6 8/8/6
f 112/149/7 111/148/8 5/5/9 6/6/10
f 4/4/11 113/150/11 10/10/11 11/11/11
f 3/3/2 2/2/12 8/8/13 9/9/3
f 1/1/14 112/149/7 6/6/10 7/7/15
f 111/148/8 61/76/16 5/5/9
f 60/60/17 4/4/18 11/11/19
f 11/11/20 10/10/21 17/17/21 18/18/22
f 9/9/23 8/8/24 15/15/25 16/16/26
f 7/7/15 6/6/10 13/13/27 14/14/28
f 5/5/9 61/77/16 12/12/29
f 60/61/30 11/11/20 18/18/22
f 10/10/31 9/9/23 16/16/26 17/17/31
f 8/8/6 7/7/6 14/14/32 15/15/32
f 6/6/10 5/5/9 12/12/29 13/13/27
f 14/14/28 13/13/27 20/20/33 21/21/34
f 12/12/29 61/78/16 19/19/35
f 60/62/36 18/18/37 24/24/38
f 17/17/39 16/16/26 120/157/40 121/158/41
f 15/15/25 14/14/42 21/21/42 22/22/43
f 13/13/27 12/12/29 19/19/35 20/20/33
f 29/29/44 30/30/45 127/164/46 126/163/47
f 16/16/26 15/15/25 22/22/43 23/23/48
f 60/63/36 24/24/38 31/31/49
f 31/31/49 24/24/38 125/162/50 128/165/51
f 22/22/52 21/21/52 27/27/52 28/28/52
f 20/20/33 19/19/35 25/25/53 26/26/54
f 23/23/55 29/29/44 126/163/47 123/160/56
f 23/23/55 22/22/57 28/28/58 29/29/44
f 21/21/34 20/20/33 26/26/54 27/27/59
f 19/19/35 61/79/16 25/25/53
f 26/26/54 25/25/53 32/32/60 33/33/61
f 31/31/62 30/30/63 37/37/64 38/38/65
f 29/29/44 28/28/58 35/35/66 36/36/67
f 27/27/59 26/26/54 33/33/61 34/34/68
f 25/25/53 61/80/16 32/32/60
f 60/64/69 31/31/62 38/38/65
f 30/30/45 29/29/44 36/36/67 37/37/64
f 28/28/70 27/27/59 34/34/68 35/35/70
f 38/38/65 37/37/64 44/44/71 45/45/72
f 36/36/67 35/35/66 42/42/73 43/43/74
f 34/34/68 33/33/61 40/40/75 41/41/76
f 32/32/60 61/81/16 39/39/77
f 60/65/69 38/38/65 45/45/78
f 37/37/64 36/36/67 43/43/74 44/44/71
f 35/35/79 34/34/79 41/41/79 42/42/79
f 33/33/61 32/32/60 39/39/77 40/40/75
f 39/39/77 61/82/16 46/46/80
f 60/66/81 45/45/81 52/52/81
f 44/44/82 43/43/83 50/50/84 51/51/85
f 42/42/86 41/41/86 48/48/87 49/49/88
f 40/40/75 39/39/77 46/46/80 47/47/89
f 45/45/72 44/44/71 51/51/90 52/52/90
f 43/43/83 42/42/91 49/49/92 50/50/84
f 41/41/76 40/40/75 47/47/89 48/48/87
f 51/51/85 50/50/84 57/57/93 58/58/94
f 49/49/88 48/48/87 55/55/95 56/56/96
f 47/47/89 46/46/80 53/53/97 54/54/98
f 52/52/99 51/51/99 58/58/100 59/59/101
f 50/50/84 49/49/92 56/56/102 57/57/103
f 48/48/87 47/47/89 54/54/104 55/55/95
f 46/46/80 61/83/16 53/53/97
f 60/67/105 52/52/105 59/59/105
f 59/59/101 58/58/100 67/97/106 68/98/107
f 57/57/103 56/56/102 65/95/108 66/96/109
f 55/55/95 54/54/104 63/93/110 64/94/111
f 53/53/97 61/84/16 62/92/112
f 60/68/113 59/59/101 68/98/107
f 58/58/94 57/57/93 66/96/114 67/97/114
f 56/56/96 55/55/95 64/94/111 65/95/115
f 54/54/104 53/53/97 62/92/112 63/93/110
f 66/96/109 65/95/108 72/102/116 73/103/117
f 64/94/111 63/93/110 70/100/118 71/101/119
f 62/92/112 61/85/16 69/99/120
f 60/69/121 68/98/122 75/105/123
f 80/110/124 81/111/125 119/156/126 118/155/127
f 65/95/128 64/94/128 71/101/128 72/102/128
f 63/93/110 62/92/112 69/99/120 70/100/118
f 68/98/122 67/97/129 74/104/129 75/105/123
f 60/70/130 75/105/131 82/112/132
f 66/96/133 73/103/134 116/153/135 114/151/136
f 72/102/116 71/101/137 78/108/138 79/109/139
f 70/100/118 69/99/120 76/106/140 77/107/141
f 75/105/131 74/104/142 81/111/142 82/112/132
f 73/103/117 72/102/116 79/109/139 80/110/143
f 71/101/119 70/100/118 77/107/141 78/108/144
f 69/99/120 61/86/145 76/106/140
f 79/109/139 78/108/138 85/117/146 86/119/147
f 77/107/141 76/106/140 83/113/148 84/115/149
f 82/112/150 81/111/151 88/123/151 89/125/152
f 80/110/143 79/109/139 86/119/147 87/121/153
f 78/108/144 77/107/141 84/115/149 85/117/154
f 76/106/140 61/87/16 83/113/148
f 60/71/155 82/112/150 89/125/152
f 81/111/125 80/110/124 87/121/156 88/123/156
f 89/126/157 88/124/158 95/132/159 96/133/160
f 87/122/153 86/120/147 93/130/161 94/131/162
f 85/118/154 84/116/149 91/128/163 92/129/164
f 83/114/148 61/88/16 90/127/165
f 60/72/166 89/126/157 96/133/160
f 88/124/167 87/122/167 94/131/168 95/132/169
f 86/120/170 85/118/170 92/129/170 93/130/170
f 84/116/149 83/114/148 90/127/165 91/128/163
f 92/129/164 91/128/163 98/135/171 99/136/172
f 90/127/165 61/89/16 97/134/173
f 60/73/166 96/133/160 103/140/174
f 95/132/169 94/131/168 101/138/175 102/139/176
f 93/130/177 92/129/164 99/136/172 100/137/178
f 91/128/163 90/127/165 97/134/173 98/135/171
f 96/133/160 95/132/159 102/139/179 103/140/174
f 94/131/162 93/130/161 100/137/180 101/138/181
f 60/74/182 103/140/174 110/147/183
f 102/139/176 101/138/175 108/145/184 109/146/184
f 100/137/178 99/136/172 106/143/185 107/144/186
f 98/135/171 97/134/173 104/141/187 105/142/188
f 103/140/174 102/139/179 109/146/189 110/147/183
f 101/138/181 100/137/180 107/144/190 108/145/191
f 99/136/172 98/135/171 105/142/188 106/143/185
f 97/134/173 61/90/16 104/141/187
f 105/142/188 104/141/187 111/148/8 112/149/7
f 110/147/192 109/146/193 113/150/193 4/4/18
f 108/145/191 107/144/190 2/2/12 3/3/2
f 106/143/185 105/142/188 112/149/7 1/1/14
f 104/141/187 61/91/16 111/148/8
f 60/75/17 110/147/192 4/4/18
f 109/146/184 108/145/184 3/3/2 113/150/1
f 107/144/186 106/143/185 1/1/5 2/2/5
f 115/152/194 114/151/194 116/153/195 117/154/195
f 117/154/195 116/153/195 118/155/127 119/156/126
f 67/97/196 66/96/133 114/151/136 115/152/197
f 81/111/125 74/104/198 117/154/199 119/156/126
f 74/104/198 67/97/196 115/152/197 117/154/199
f 73/103/134 80/110/124 118/155/127 116/153/135
f 121/158/200 120/157/40 123/160/201 124/161/202
f 122/159/203 121/158/200 124/161/202 125/162/50
f 124/161/202 123/160/56 126/163/47 127/164/46
f 125/162/50 124/161/202 127/164/46 128/165/51
f 16/16/26 23/23/48 123/160/201 120/157/40
f 24/24/38 18/18/37 122/159/203 125/162/50
f 30/30/45 31/31/49 128/165/51 127/164/46
f 18/18/37 17/17/39 121/158/41 122/159/203
