# Blender 3.5.0
# www.blender.org
mtllib Fish.mtl
o Fish
v 0.299381 -0.159299 2.021579
v 0.299381 0.159299 2.021579
v 0.231931 -0.159299 -2.021579
v 0.231931 0.159299 -2.021579
v 0.000000 -0.159299 -2.021579
v 0.000000 0.159299 -2.021579
v 0.000000 -0.159299 2.021579
v 0.000000 0.159299 2.021579
v 0.211986 -0.642095 1.347719
v 0.215973 -0.896502 0.628205
v 0.213503 -0.994474 0.067605
v 0.200972 -0.884520 -0.673860
v 0.211986 -0.642095 -1.347719
v 0.211986 0.642095 -1.347719
v 0.200972 0.884520 -0.673860
v 0.198003 1.002285 -0.000000
v 0.200972 0.884520 0.673859
v 0.211986 0.642095 1.347719
v 0.000000 0.642095 -1.347719
v 0.000000 0.884520 -0.673860
v 0.000000 1.002285 -0.000000
v 0.000000 0.884520 0.673859
v 0.000000 0.642095 1.347719
v 0.000000 -0.642095 -1.347719
v 0.000000 -0.884520 -0.673860
v 0.000000 -1.002285 -0.000000
v 0.000000 -0.884520 0.673859
v 0.000000 -0.642095 1.347719
v 0.330888 0.000000 2.145099
v 0.326634 0.000000 -1.347719
v 0.350948 0.018909 -0.676791
v 0.326634 0.000000 -0.000000
v 0.326634 -0.000000 0.673859
v 0.326634 0.000000 1.347719
v 0.330888 0.000000 3.068458
v 0.256973 -0.322871 2.883696
v 0.000000 -0.322871 2.883696
v 0.256973 0.322871 2.883696
v 0.000000 0.322871 2.883696
v 0.000000 0.000000 3.068458
v 0.235179 0.079650 -2.083339
v 0.320901 0.079650 2.083339
v 0.000000 0.079650 -2.083339
v 0.269678 0.321047 -1.347719
v 0.240990 0.442260 -0.673860
v 0.229628 0.501142 -0.000000
v 0.240990 0.442260 0.673859
v 0.269678 0.321047 1.347719
v 0.304797 0.161436 2.976077
v 0.000000 0.161436 2.976077
v 0.235179 -0.079650 -2.083339
v 0.320901 -0.079650 2.083339
v 0.000000 -0.079650 -2.083339
v 0.269678 -0.321047 -1.347719
v 0.240990 -0.442260 -0.673860
v 0.229628 -0.501142 -0.000000
v 0.240990 -0.442260 0.673859
v 0.269678 -0.321047 1.347719
v 0.304797 -0.161436 2.976077
v 0.000000 -0.161436 2.976077
v 0.000000 -0.020618 -1.134271
v 0.000000 0.075791 -2.021579
v 0.000000 0.060939 -1.347719
v 0.206479 0.763307 -1.010789
v 0.000000 0.763307 -1.010789
v 0.350948 0.018909 -1.013721
v 0.255334 0.381654 -1.010790
v 0.578454 -0.119671 -0.557665
v 0.624292 -0.234688 -0.690751
v 0.000000 1.164221 -0.411336
v 0.000000 1.263293 0.272451
v 0.000000 0.981569 0.623874
v 0.438519 -0.069290 -0.614297
v 0.461438 -0.126798 -0.849305
v 0.490883 -0.031472 -0.620159
v 0.513802 -0.088981 -0.855167
v 0.232955 -0.134192 -2.041047
v 0.306164 -0.134192 2.041047
v 0.000000 -0.134192 -2.041047
v 0.230171 -0.540895 -1.347719
v 0.213587 -0.745112 -0.673860
v 0.221796 -0.863056 0.067605
v 0.226467 -0.780525 0.628205
v 0.230171 -0.540895 1.347719
v 0.272048 -0.271984 2.912816
v 0.000000 -0.271984 2.912816
v 0.323786 -0.969354 0.640212
v 0.384582 -1.119855 0.290803
v 0.385838 -1.033052 0.270548
v 0.327015 -0.892571 0.622638
v 0.394909 -1.068731 0.531087
v 0.385210 -1.076454 0.280675
v 0.325401 -0.930962 0.631425
v 0.397152 -0.986937 0.512173
v 0.396031 -1.027834 0.521630
v 0.283350 -0.947399 0.171873
v 0.271079 -1.045439 0.164325
v 0.276634 -1.001054 0.167742
v 0.216933 -0.940123 0.067605
v 0.220556 -0.845855 0.628205
v -0.299381 -0.159299 2.021579
v -0.299381 0.159299 2.021579
v -0.231931 -0.159299 -2.021579
v -0.231931 0.159299 -2.021579
v -0.211986 -0.642095 1.347719
v -0.215973 -0.896502 0.628205
v -0.213503 -0.994474 0.067605
v -0.200972 -0.884520 -0.673860
v -0.211986 -0.642095 -1.347719
v -0.211986 0.642095 -1.347719
v -0.200972 0.884520 -0.673860
v -0.198003 1.002285 -0.000000
v -0.200972 0.884520 0.673859
v -0.211986 0.642095 1.347719
v -0.330888 0.000000 2.145099
v -0.326634 0.000000 -1.347719
v -0.350948 0.018909 -0.676791
v -0.326634 0.000000 -0.000000
v -0.326634 -0.000000 0.673859
v -0.326634 0.000000 1.347719
v -0.330888 0.000000 3.068458
v -0.256973 -0.322871 2.883696
v -0.256973 0.322871 2.883696
v -0.235179 0.079650 -2.083339
v -0.320901 0.079650 2.083339
v -0.269678 0.321047 -1.347719
v -0.240990 0.442260 -0.673860
v -0.229628 0.501142 -0.000000
v -0.240990 0.442260 0.673859
v -0.269678 0.321047 1.347719
v -0.304797 0.161436 2.976077
v -0.235179 -0.079650 -2.083339
v -0.320901 -0.079650 2.083339
v -0.269678 -0.321047 -1.347719
v -0.240990 -0.442260 -0.673860
v -0.229628 -0.501142 -0.000000
v -0.240990 -0.442260 0.673859
v -0.269678 -0.321047 1.347719
v -0.304797 -0.161436 2.976077
v -0.206479 0.763307 -1.010789
v -0.350948 0.018909 -1.013721
v -0.255334 0.381654 -1.010790
v -0.578454 -0.119671 -0.557665
v -0.624292 -0.234688 -0.690751
v -0.438519 -0.069290 -0.614297
v -0.461438 -0.126798 -0.849305
v -0.490883 -0.031472 -0.620159
v -0.513802 -0.088981 -0.855167
v -0.232955 -0.134192 -2.041047
v -0.306164 -0.134192 2.041047
v -0.230171 -0.540895 -1.347719
v -0.213587 -0.745112 -0.673860
v -0.221796 -0.863056 0.067605
v -0.226467 -0.780525 0.628205
v -0.230171 -0.540895 1.347719
v -0.272048 -0.271984 2.912816
v -0.323786 -0.969354 0.640212
v -0.384582 -1.119855 0.290803
v -0.385838 -1.033052 0.270548
v -0.327015 -0.892571 0.622638
v -0.394909 -1.068731 0.531087
v -0.385210 -1.076454 0.280675
v -0.325401 -0.930962 0.631425
v -0.397152 -0.986937 0.512173
v -0.396031 -1.027834 0.521630
v -0.283350 -0.947399 0.171873
v -0.271079 -1.045439 0.164325
v -0.276634 -1.001054 0.167742
v -0.216933 -0.940123 0.067605
v -0.220556 -0.845855 0.628205
vn 0.9854 0.1704 -0.0011
vn 0.6182 0.7125 0.3320
vn 0.7323 0.6722 0.1086
vn 0.9795 0.2013 -0.0055
vn -0.0000 -0.8860 0.4637
vn 0.6120 -0.7107 0.3469
vn 0.7316 -0.6724 0.1122
vn -0.0000 -0.9765 0.2154
vn -0.0000 0.8854 0.4649
vn -0.0000 0.9765 0.2154
vn 0.4844 0.8061 0.3399
vn 0.6750 0.4633 0.5742
vn 0.6635 0.7122 -0.2292
vn -0.0000 0.9410 -0.3385
vn -0.1023 0.9615 -0.2549
vn 0.6567 0.7327 -0.1788
vn -0.4909 0.8712 -0.0000
vn 0.6436 0.7653 -0.0000
vn -0.1457 0.9563 0.2535
vn 0.6536 0.7353 0.1796
vn -0.0000 -0.7204 -0.6936
vn 0.6108 -0.5897 -0.5284
vn 0.6260 -0.6972 -0.3494
vn -0.0000 -0.8854 -0.4649
vn 0.6552 -0.7317 -0.1881
vn -0.0000 -0.9682 -0.2500
vn 0.5423 -0.8215 -0.1762
vn -0.0000 -0.9997 -0.0258
vn 0.0336 -0.7976 0.6023
vn -0.0000 -0.9639 0.2661
vn 0.4082 0.8013 -0.4374
vn 0.6096 0.5892 -0.5304
vn 0.6216 0.7037 -0.3442
vn 0.9820 0.1780 -0.0627
vn 0.9827 0.1846 -0.0126
vn 0.9868 0.1618 0.0049
vn 0.9906 0.1367 0.0046
vn 0.9895 0.1442 0.0003
vn 0.9919 -0.1269 -0.0024
vn 1.0000 -0.0000 -0.0022
vn 1.0000 -0.0000 -0.0073
vn 0.9865 -0.1636 -0.0026
vn 0.9930 -0.1180 -0.0002
vn 1.0000 0.0002 0.0084
vn 0.9883 -0.1526 0.0006
vn 0.9966 -0.0723 -0.0404
vn 0.9834 -0.1739 -0.0525
vn 0.8953 0.4335 -0.1031
vn 0.9998 -0.0026 0.0193
vn 1.0000 -0.0000 -0.0015
vn 0.9795 -0.2012 -0.0059
vn -0.0000 0.9082 0.4185
vn -0.0000 0.4967 0.8679
vn 0.6751 -0.4633 0.5742
vn 0.6429 -0.0000 0.7659
vn -0.0000 -0.0000 1.0000
vn -0.0000 -0.4967 0.8679
vn 0.4841 -0.8061 0.3403
vn -0.0000 -0.9082 0.4185
vn 0.9723 -0.2339 -0.0019
vn 0.6398 -0.5118 0.5733
vn 0.9882 -0.1527 0.0130
vn 0.6402 -0.5065 -0.5775
vn 0.4991 0.3164 -0.8067
vn 0.9881 -0.1454 -0.0497
vn 0.9953 -0.0955 -0.0130
vn 0.9926 0.0375 -0.1152
vn 0.9897 0.0822 0.1174
vn -0.1055 0.7163 -0.6897
vn -0.0000 0.8854 -0.4649
vn -0.0000 0.4026 -0.9154
vn -0.0000 0.1376 -0.9905
vn -0.3144 -0.3909 -0.8651
vn -0.8315 0.5547 0.0298
vn -0.0000 0.3777 -0.9259
vn 0.2891 0.8668 0.4063
vn -0.6647 0.7459 -0.0414
vn -0.7537 -0.1859 0.6304
vn -1.0000 -0.0000 -0.0000
vn -0.3710 -0.7881 -0.4911
vn -0.5154 0.1798 -0.8379
vn 0.6496 0.2598 -0.7145
vn 0.7105 -0.0315 0.7029
vn 0.9537 -0.0699 -0.2925
vn 0.7666 -0.0791 -0.6372
vn 0.0654 -0.8744 -0.4808
vn -0.0000 -0.6128 -0.7903
vn 0.9720 0.0273 0.2334
vn 0.9382 0.3324 0.0961
vn 0.7002 0.4094 0.5849
vn 0.5153 0.1000 0.8511
vn 0.0853 -0.5027 0.8603
vn 0.4133 -0.7931 0.4475
vn 0.3998 -0.8972 -0.1876
vn 0.9098 -0.0706 -0.4091
vn 0.8854 0.2333 -0.4020
vn 0.8583 0.3079 -0.4104
vn -0.9854 0.1704 -0.0011
vn -0.9795 0.2013 -0.0055
vn -0.7323 0.6722 0.1086
vn -0.6182 0.7125 0.3320
vn -0.7316 -0.6724 0.1122
vn -0.6120 -0.7107 0.3469
vn -0.6750 0.4633 0.5742
vn -0.4844 0.8061 0.3399
vn -0.6635 0.7122 -0.2292
vn -0.6567 0.7327 -0.1788
vn -0.6436 0.7653 -0.0000
vn -0.6536 0.7353 0.1796
vn -0.6260 -0.6972 -0.3494
vn -0.6108 -0.5897 -0.5284
vn -0.6552 -0.7317 -0.1881
vn -0.5423 -0.8215 -0.1762
vn -0.0336 -0.7976 0.6023
vn -0.4082 0.8013 -0.4374
vn -0.9820 0.1780 -0.0627
vn -0.6216 0.7037 -0.3442
vn -0.6096 0.5892 -0.5304
vn -0.9827 0.1846 -0.0126
vn -0.9868 0.1618 0.0049
vn -0.9906 0.1367 0.0046
vn -0.9895 0.1442 0.0003
vn -0.9919 -0.1269 -0.0024
vn -0.9865 -0.1636 -0.0026
vn -1.0000 -0.0000 -0.0073
vn -1.0000 -0.0000 -0.0022
vn -0.9930 -0.1180 -0.0002
vn -1.0000 0.0002 0.0084
vn -0.9883 -0.1526 0.0006
vn -0.9966 -0.0723 -0.0404
vn -0.9834 -0.1739 -0.0525
vn -0.9998 -0.0026 0.0193
vn -0.8953 0.4335 -0.1031
vn -0.9795 -0.2012 -0.0059
vn -1.0000 -0.0000 -0.0015
vn -0.6751 -0.4633 0.5742
vn -0.6429 -0.0000 0.7659
vn -0.4841 -0.8061 0.3403
vn -0.9723 -0.2339 -0.0019
vn -0.6398 -0.5118 0.5733
vn -0.9882 -0.1527 0.0130
vn -0.6402 -0.5065 -0.5776
vn -0.9881 -0.1454 -0.0497
vn -0.4991 0.3164 -0.8067
vn -0.9953 -0.0955 -0.0130
vn -0.9926 0.0375 -0.1152
vn -0.9897 0.0822 0.1174
vn -0.2891 0.8668 0.4063
vn 0.7537 -0.1859 0.6304
vn 0.6647 0.7459 -0.0414
vn 0.3710 -0.7881 -0.4911
vn 0.5154 0.1798 -0.8379
vn -0.6496 0.2598 -0.7145
vn -0.7105 -0.0315 0.7029
vn -0.0654 -0.8744 -0.4808
vn -0.7666 -0.0791 -0.6372
vn -0.9537 -0.0699 -0.2925
vn -0.9720 0.0273 0.2334
vn -0.5153 0.1000 0.8511
vn -0.7002 0.4094 0.5849
vn -0.9382 0.3324 0.0961
vn -0.0853 -0.5027 0.8603
vn -0.4133 -0.7931 0.4475
vn -0.3998 -0.8972 -0.1876
vn -0.9098 -0.0706 -0.4091
vn -0.8854 0.2333 -0.4020
vn -0.8583 0.3079 -0.4104
vt 0.560146 0.737219
vt 0.997841 0.128184
vt 0.709887 0.605442
vt 0.998134 0.236122
vt 0.371967 0.421008
vt 0.396684 0.394811
vt 0.346209 0.402689
vt 0.253807 0.759398
vt 0.377997 0.370436
vt 0.796493 0.000000
vt 0.156701 0.594978
vt 0.946584 0.335743
vt 0.768684 0.335743
vt 0.595235 0.150010
vt 0.974393 0.671486
vt 0.350368 0.600794
vt 0.336132 0.525896
vt 0.075689 0.965264
vt 0.336830 0.496259
vt 0.011373 0.954271
vt 0.346133 0.469373
vt 0.358402 0.446792
vt 0.422111 0.381781
vt 0.444959 0.369046
vt 0.468393 0.356950
vt 0.505166 0.355056
vt 0.580280 0.370127
vt 0.399164 0.348958
vt 0.184391 0.860943
vt 0.417603 0.330249
vt 0.204874 0.802965
vt 0.439102 0.308410
vt 0.184391 0.744988
vt 0.468024 0.279087
vt 0.526395 0.219860
vt 0.325233 0.423973
vt 0.306701 0.442777
vt 0.285280 0.464513
vt 0.253383 0.496878
vt 0.204076 0.546908
vt 0.997951 0.180004
vt 0.676626 0.724720
vt 0.398989 0.422338
vt 0.416726 0.438139
vt 0.918431 0.918090
vt 0.441338 0.464017
vt 0.474542 0.497878
vt 0.526626 0.552933
vt 0.910027 0.178315
vt 0.895404 0.131176
vt 0.755687 0.098603
vt 0.987389 0.434346
vt 0.890249 0.220308
vt 0.744098 0.227929
vt 0.998979 0.563672
vt 0.744583 0.160456
vt 0.998494 0.496199
vt 0.393733 0.396888
vt 1.000000 0.204572
vt 0.706769 0.670352
vt 0.250272 0.744988
vt 0.375909 0.372552
vt 0.414171 0.401826
vt 0.440281 0.402336
vt 0.472093 0.404334
vt 0.515191 0.420577
vt 0.575908 0.467671
vt 0.905598 0.197602
vt 0.743077 0.192304
vt 1.000000 0.528047
vt 0.374043 0.418294
vt 1.000000 0.155799
vt 0.617262 0.744988
vt 0.348591 0.400272
vt 0.378358 0.438445
vt 0.379241 0.463710
vt 0.382301 0.494381
vt 0.398463 0.535780
vt 0.441386 0.597178
vt 0.908562 0.159451
vt 0.749312 0.128790
vt 0.993765 0.464533
vt 0.361959 0.386709
vt 0.255628 0.744988
vt 0.374872 0.373606
vt 0.365186 0.383435
vt 0.433265 0.376114
vt 0.407762 0.340234
vt 0.408389 0.429610
vt 0.921278 0.930623
vt 0.426499 0.402536
vt 0.912916 0.740401
vt 0.921278 0.671486
vt 0.233040 0.838356
vt 0.250272 0.779524
vt 0.201271 0.749289
vt 0.905872 0.867166
vt 0.832177 0.853359
vt 0.919954 0.851999
vt 0.904592 0.828555
vt 0.881988 0.812001
vt 0.372692 0.420145
vt 0.574630 0.740751
vt 0.999376 0.136205
vt 0.346986 0.401901
vt 0.364542 0.444830
vt 0.356348 0.468706
vt 0.347823 0.497905
vt 0.011290 0.759397
vt 0.351020 0.530263
vt 0.061178 0.746956
vt 0.377514 0.601690
vt 0.900525 0.141516
vt 0.753429 0.108448
vt 0.989647 0.444191
vt 0.084883 0.889483
vt 0.055133 0.856570
vt 0.054415 0.843165
vt 0.071920 0.807056
vt 0.069040 0.851989
vt 0.051110 0.849862
vt 0.078521 0.808004
vt 0.092195 0.889463
vt 0.070011 0.839924
vt 0.074046 0.846207
vt 0.026285 0.796725
vt 0.027779 0.912458
vt 0.019320 0.906488
vt 0.017363 0.800020
vt -0.000000 0.950222
vt 0.341152 0.496856
vt -0.000000 0.766368
vt 0.342508 0.527888
vt 0.073113 0.744988
vt 0.086758 0.965252
vt 0.008600 0.193647
vt 0.745236 0.463927
vt 0.138182 0.042003
vt 0.744943 0.571865
vt 0.327517 0.377201
vt 0.353352 0.352105
vt 0.148066 0.401416
vt 0.223162 0.414559
vt 0.108702 0.965264
vt 0.252786 0.413430
vt 0.173018 0.954271
vt 0.279534 0.403737
vt 0.301934 0.391140
vt 0.366010 0.326491
vt 0.378411 0.303460
vt 0.390164 0.279852
vt 0.391523 0.243055
vt 0.375359 0.168169
vt 0.745126 0.515747
vt 0.019401 0.076997
vt 0.325794 0.350201
vt 0.309737 0.332697
vt 0.745924 0.918090
vt 0.283503 0.308464
vt 0.249162 0.275756
vt 0.193354 0.224480
vt 0.833050 0.514059
vt 0.847673 0.466919
vt 0.852827 0.556051
vt 0.351318 0.355086
vt 0.743077 0.540315
vt 0.073324 0.046065
vt 0.346083 0.334723
vt 0.345193 0.308623
vt 0.342732 0.276843
vt 0.325863 0.233986
vt 0.277889 0.173962
vt 0.837479 0.533345
vt 0.330201 0.375086
vt 0.743077 0.491542
vt -0.000000 0.136650
vt 0.309989 0.371065
vt 0.284714 0.370550
vt 0.254002 0.367937
vt 0.212372 0.352379
vt 0.150356 0.310355
vt 0.834515 0.495194
vt 0.371514 0.315256
vt 0.318386 0.340908
vt 0.743077 0.930623
vt 0.345193 0.322406
vt 0.751439 0.740401
vt 0.743077 0.671486
vt 0.758483 0.867166
vt 0.832177 0.853359
vt 0.744401 0.851999
vt 0.759762 0.828555
vt 0.782366 0.812001
vt 0.328370 0.376464
vt 0.004857 0.179215
vt 0.743701 0.471949
vt 0.303806 0.384972
vt 0.280052 0.393513
vt 0.250981 0.402463
vt 0.173101 0.759397
vt 0.218579 0.399736
vt 0.123213 0.746956
vt 0.146774 0.374286
vt 0.842552 0.477259
vt 0.099508 0.889483
vt 0.129258 0.856570
vt 0.129975 0.843165
vt 0.112471 0.807056
vt 0.115351 0.851989
vt 0.133281 0.849862
vt 0.105870 0.808004
vt 0.092195 0.889463
vt 0.114379 0.839924
vt 0.110344 0.846207
vt 0.158106 0.796725
vt 0.156611 0.912458
vt 0.165070 0.906489
vt 0.167028 0.800020
vt 0.184391 0.950222
vt 0.252126 0.409117
vt 0.184391 0.766368
vt 0.221078 0.408213
vt 0.111278 0.744988
vt 0.097633 0.965252
s 1
usemtl Material
f 48/67/1 18/27/2 2/3/3 42/60/4
f 28/40/5 9/16/6 1/1/7 7/11/8
f 18/27/2 23/35/9 8/14/10 2/3/3
f 42/59/4 2/4/3 38/53/11 49/68/12
f 64/87/13 65/88/14 20/30/15 15/24/16
f 15/24/16 20/30/15 21/32/17 16/25/18
f 16/25/18 21/32/17 22/34/19 17/26/20
f 17/26/20 22/34/19 23/35/9 18/27/2
f 5/7/21 3/5/22 13/22/23 24/36/24
f 24/36/24 13/22/23 12/21/25 25/37/26
f 25/37/26 12/21/25 11/19/27 26/38/28
f 26/38/28 11/19/27 10/17/29 27/39/30
f 27/39/30 10/17/29 9/16/6 28/40/5
f 41/58/31 4/6/32 14/23/33 44/63/34
f 67/91/35 64/87/13 15/24/16 45/64/36
f 45/64/36 15/24/16 16/25/18 46/65/37
f 46/65/37 16/25/18 17/26/20 47/66/38
f 47/66/38 17/26/20 18/27/2 48/67/1
f 57/78/39 33/47/40 34/48/41 58/79/42
f 56/77/43 32/46/44 33/47/40 57/78/39
f 55/76/45 31/44/46 32/46/44 56/77/43
f 54/75/47 30/43/48 66/89/49 31/44/46 55/76/45
f 58/79/42 34/48/41 29/42/50 52/73/51
f 49/68/12 38/53/11 39/54/52 50/69/53
f 59/80/54 35/49/55 40/56/56 60/81/57
f 52/72/51 29/41/50 35/49/55 59/80/54
f 2/4/3 8/13/10 39/54/52 38/53/11
f 7/10/8 1/2/7 36/50/58 37/51/59
f 35/49/55 49/68/12 50/69/53 40/56/56
f 33/47/40 47/66/38 48/67/1 34/48/41
f 32/46/44 46/65/37 47/66/38 33/47/40
f 31/44/46 45/64/36 46/65/37 32/46/44
f 66/89/49 67/91/35 45/64/36 31/44/46
f 29/41/50 42/59/4 49/68/12 35/49/55
f 34/48/41 48/67/1 42/60/4 29/42/50
f 78/104/60 52/72/51 59/80/54 85/113/61
f 85/113/61 59/80/54 60/81/57 86/114/57
f 84/112/62 58/79/42 52/73/51 78/103/60
f 77/102/63 51/71/64 54/75/47 80/106/65
f 80/106/65 54/75/47 55/76/45 81/107/66
f 81/107/66 55/76/45 56/77/43 82/108/67
f 82/108/67 56/77/43 57/78/39 83/110/68
f 83/110/68 57/78/39 58/79/42 84/112/62
f 4/6/32 6/9/69 19/28/70 14/23/33
f 44/63/34 30/43/48 41/58/31
f 54/75/47 51/71/64 30/43/48
f 53/74/71 61/83/72 30/43/48 51/71/64
f 4/6/32 41/58/31 43/62/73 6/9/69
f 6/8/69 43/61/73 62/84/74
f 30/43/48 41/58/31 62/85/74 63/86/75
f 41/58/31 62/85/74 43/62/73
f 61/83/72 63/86/75 30/43/48
f 30/43/48 44/63/34 67/91/35 66/89/49
f 44/63/34 14/23/33 64/87/13 67/91/35
f 14/23/33 19/28/70 65/88/14 64/87/13
f 74/98/76 69/93/77 76/101/78
f 21/31/17 22/33/19 72/96/79 71/95/79
f 20/29/15 21/31/17 71/95/79 70/94/79
f 75/100/80 76/101/78 69/93/77 68/92/81
f 73/97/82 31/45/46 75/100/80
f 68/92/81 73/97/82 75/100/80
f 31/45/46 66/90/49 76/101/78 75/100/80
f 66/90/49 74/99/76 76/101/78
f 74/99/76 66/90/49 31/45/46 73/97/82
f 69/93/77 74/99/76 73/97/82 68/92/81
f 10/17/29 100/133/83 83/110/68 84/112/62 9/16/6
f 11/20/27 99/130/84 98/128/85 97/127/86
f 12/21/25 81/107/66 82/108/67 99/131/84 11/19/27
f 13/22/23 80/106/65 81/107/66 12/21/25
f 3/5/22 77/102/63 80/106/65 13/22/23
f 9/16/6 84/112/62 78/103/60 1/1/7
f 5/7/21 79/105/87 77/102/63 3/5/22
f 36/50/58 85/113/61 86/114/57 37/51/59
f 1/2/7 78/104/60 85/113/61 36/50/58
f 95/125/88 94/124/89 90/119/90 93/122/91
f 83/111/68 100/134/83 93/122/91 90/119/90
f 97/127/86 87/116/92 10/18/29 11/20/27
f 91/120/93 95/125/88 93/123/91 87/116/92
f 88/117/94 92/121/95 95/125/88 91/120/93
f 92/121/95 89/118/96 94/124/89 95/125/88
f 96/126/97 90/119/90 94/124/89 89/118/96
f 83/111/68 90/119/90 96/126/97 82/109/67
f 97/127/86 98/128/85 92/121/95 88/117/94
f 92/121/95 98/129/85 96/126/97 89/118/96
f 98/129/85 99/132/84 82/109/67 96/126/97
f 93/123/91 100/135/83 10/18/29 87/116/92
f 51/71/64 77/102/63 79/105/87 53/74/71
f 97/127/86 88/117/94 91/120/93 87/116/92
f 130/172/98 125/167/99 102/138/100 114/153/101
f 28/40/5 7/11/8 101/136/102 105/142/103
f 114/153/101 102/138/100 8/14/10 23/35/9
f 125/166/99 131/173/104 123/164/105 102/139/100
f 140/183/106 111/150/107 20/30/15 65/88/14
f 111/150/107 112/151/108 21/32/17 20/30/15
f 112/151/108 113/152/109 22/34/19 21/32/17
f 113/152/109 114/153/101 23/35/9 22/34/19
f 5/7/21 24/36/24 109/148/110 103/140/111
f 24/36/24 25/37/26 108/147/112 109/148/110
f 25/37/26 26/38/28 107/145/113 108/147/112
f 26/38/28 27/39/30 106/143/114 107/145/113
f 27/39/30 28/40/5 105/142/103 106/143/114
f 124/165/115 126/168/116 110/149/117 104/141/118
f 142/186/119 127/169/120 111/150/107 140/183/106
f 127/169/120 128/170/121 112/151/108 111/150/107
f 128/170/121 129/171/122 113/152/109 112/151/108
f 129/171/122 130/172/98 114/153/101 113/152/109
f 137/180/123 138/181/124 120/161/125 119/160/126
f 136/179/127 137/180/123 119/160/126 118/159/128
f 135/178/129 136/179/127 118/159/128 117/157/130
f 134/177/131 135/178/129 117/157/130 141/184/132 116/156/133
f 138/181/124 133/176/134 115/155/135 120/161/125
f 131/173/104 50/70/53 39/55/52 123/164/105
f 139/182/136 60/82/57 40/57/56 121/162/137
f 133/175/134 139/182/136 121/162/137 115/154/135
f 102/139/100 123/164/105 39/55/52 8/15/10
f 7/12/8 37/52/59 122/163/138 101/137/102
f 121/162/137 40/57/56 50/70/53 131/173/104
f 119/160/126 120/161/125 130/172/98 129/171/122
f 118/159/128 119/160/126 129/171/122 128/170/121
f 117/157/130 118/159/128 128/170/121 127/169/120
f 141/184/132 117/157/130 127/169/120 142/186/119
f 115/154/135 121/162/137 131/173/104 125/166/99
f 120/161/125 115/155/135 125/167/99 130/172/98
f 150/196/139 156/204/140 139/182/136 133/175/134
f 156/204/140 86/115/57 60/82/57 139/182/136
f 155/203/141 150/195/139 133/176/134 138/181/124
f 149/194/142 151/197/143 134/177/131 132/174/144
f 151/197/143 152/198/145 135/178/129 134/177/131
f 152/198/145 153/199/146 136/179/127 135/178/129
f 153/199/146 154/201/147 137/180/123 136/179/127
f 154/201/147 155/203/141 138/181/124 137/180/123
f 104/141/118 110/149/117 19/28/70 6/9/69
f 126/168/116 124/165/115 116/156/133
f 134/177/131 116/156/133 132/174/144
f 53/74/71 132/174/144 116/156/133 61/83/72
f 104/141/118 6/9/69 43/62/73 124/165/115
f 116/156/133 63/86/75 62/85/74 124/165/115
f 124/165/115 43/62/73 62/85/74
f 61/83/72 116/156/133 63/86/75
f 116/156/133 141/184/132 142/186/119 126/168/116
f 126/168/116 142/186/119 140/183/106 110/149/117
f 110/149/117 140/183/106 65/88/14 19/28/70
f 146/190/148 148/193/149 144/188/150
f 147/192/151 143/187/152 144/188/150 148/193/149
f 145/189/153 147/192/151 117/158/130
f 143/187/152 147/192/151 145/189/153
f 117/158/130 147/192/151 148/193/149 141/185/132
f 141/185/132 148/193/149 146/191/148
f 146/191/148 145/189/153 117/158/130 141/185/132
f 144/188/150 143/187/152 145/189/153 146/191/148
f 106/143/114 105/142/103 155/203/141 154/201/147 170/222/154
f 107/146/113 167/216/155 168/217/156 169/219/157
f 108/147/112 107/145/113 169/220/157 153/199/146 152/198/145
f 109/148/110 108/147/112 152/198/145 151/197/143
f 103/140/111 109/148/110 151/197/143 149/194/142
f 105/142/103 101/136/102 150/195/139 155/203/141
f 5/7/21 103/140/111 149/194/142 79/105/87
f 122/163/138 37/52/59 86/115/57 156/204/140
f 101/137/102 122/163/138 156/204/140 150/196/139
f 165/214/158 163/211/159 160/208/160 164/213/161
f 154/202/147 160/208/160 163/211/159 170/223/154
f 167/216/155 107/146/113 106/144/114 157/205/162
f 161/209/163 157/205/162 163/212/159 165/214/158
f 158/206/164 161/209/163 165/214/158 162/210/165
f 162/210/165 165/214/158 164/213/161 159/207/166
f 166/215/167 159/207/166 164/213/161 160/208/160
f 154/202/147 153/200/146 166/215/167 160/208/160
f 167/216/155 158/206/164 162/210/165 168/217/156
f 162/210/165 159/207/166 166/215/167 168/218/156
f 168/218/156 166/215/167 153/200/146 169/221/157
f 163/212/159 157/205/162 106/144/114 170/224/154
f 132/174/144 53/74/71 79/105/87 149/194/142
f 167/216/155 157/205/162 161/209/163 158/206/164
o Eyeballs
v 0.335693 0.244497 -1.137635
v 0.396549 0.434328 -1.036804
v 0.276677 0.550505 -0.981869
v 0.205762 0.169654 -1.036804
v 0.340220 0.259518 -0.946527
v 0.192612 0.307907 -0.845656
v 0.292844 0.380563 -0.856779
v 0.192612 0.307907 -1.227953
v 0.171332 0.531603 -0.918667
v 0.171332 0.531603 -1.154942
v 0.282948 0.484589 -1.182876
v -0.335693 0.244497 -1.137635
v -0.396549 0.434328 -1.036804
v -0.276677 0.550505 -0.981869
v -0.205762 0.169654 -1.036804
v -0.340220 0.259518 -0.946527
v -0.192612 0.307907 -0.845656
v -0.292844 0.380563 -0.856779
v -0.192612 0.307907 -1.227953
v -0.171332 0.531603 -0.918667
v -0.171332 0.531603 -1.154942
v -0.282948 0.484589 -1.182876
vn 0.6927 -0.5702 0.4416
vn 0.2937 -0.9554 0.0295
vn 0.6514 -0.5680 -0.5031
vn 0.4689 0.1210 0.8749
vn 0.9589 0.2836 -0.0121
vn 0.3867 0.8894 0.2437
vn 0.4452 0.5034 -0.7405
vn 0.0801 0.8308 -0.5507
vn 0.0841 0.7885 0.6092
vn 0.2821 -0.2473 -0.9270
vn 0.1665 -0.3339 0.9278
vn -0.6927 -0.5702 0.4416
vn -0.6514 -0.5680 -0.5031
vn -0.2937 -0.9554 0.0295
vn -0.4689 0.1210 0.8749
vn -0.3867 0.8894 0.2437
vn -0.9589 0.2836 -0.0121
vn -0.4452 0.5034 -0.7405
vn -0.0801 0.8308 -0.5507
vn -0.0841 0.7885 0.6092
vn -0.2821 -0.2473 -0.9270
vn -0.1665 -0.3339 0.9278
vt 0.033703 0.335479
vt 0.648190 0.851713
vt 0.144314 0.127494
vt 0.581770 0.400304
vt 0.296012 0.033703
vt 0.491056 0.966297
vt 0.185890 0.464376
vt 0.218187 0.349756
vt 0.412402 0.345283
vt 0.362759 0.240392
vt 0.627227 0.760892
vt 0.708771 0.394151
vt 0.412402 0.088564
vt 0.185886 0.048993
vt 0.479808 0.394151
vt 0.491767 0.531782
vt 0.082682 0.072083
vt 0.599094 0.573326
vt 0.311128 0.857557
vt 0.079756 0.750351
vt 0.033703 0.641290
vt 0.532062 0.099098
vt 0.354535 0.955310
vt 0.912192 0.326745
vt 0.151382 0.955966
vt 0.874252 0.135269
vt 0.807218 0.104816
vt 0.033703 0.880810
vt 0.752809 0.033703
vt 0.423650 0.708244
vt 0.539991 0.104815
vt 0.479808 0.326745
vt 0.239875 0.531782
vt 0.226648 0.588447
s 1
usemtl Eyeballs
f 175/232/168 174/231/169 171/225/170
f 177/234/171 172/227/172 173/229/173
f 172/227/172 181/241/174 173/229/173
f 181/241/174 180/238/175 173/229/173
f 180/239/175 179/236/176 173/228/173
f 179/237/176 177/234/171 173/229/173
f 171/225/170 181/241/174 172/227/172
f 178/235/177 180/240/175 181/242/174
f 176/233/178 177/234/171 179/237/176
f 177/234/171 175/232/168 172/227/172
f 171/226/170 178/235/177 181/242/174
f 176/233/178 175/232/168 177/234/171
f 175/232/168 171/225/170 172/227/172
f 174/230/169 178/235/177 171/226/170
f 174/231/169 175/232/168 176/233/178
f 186/249/179 182/243/180 185/247/181
f 188/252/182 184/245/183 183/244/184
f 183/244/184 184/245/183 192/258/185
f 192/258/185 184/245/183 191/257/186
f 191/256/186 184/246/183 190/255/187
f 190/255/187 184/246/183 188/253/182
f 182/243/180 183/244/184 192/258/185
f 189/254/188 192/258/185 191/257/186
f 187/251/189 190/255/187 188/253/182
f 188/252/182 183/244/184 186/249/179
f 182/243/180 192/258/185 189/254/188
f 187/251/189 188/253/182 186/250/179
f 186/249/179 183/244/184 182/243/180
f 185/247/181 182/243/180 189/254/188
f 185/248/181 187/251/189 186/250/179
